<?xml version="1.0" encoding="utf-8" ?>
<svg baseProfile="full" height="300mm" version="1.1" viewBox="0,0,200,300" width="200mm" xmlns="http://www.w3.org/2000/svg" xmlns:ev="http://www.w3.org/2001/xml-events" xmlns:xlink="http://www.w3.org/1999/xlink"><defs /><rect fill="#222222" height="300" width="200" x="0" y="0" /><text fill="#FFFFFF" style="font-size:12px; font-family:Arial; font-weight:bold;" x="10" y="20">Over 10km Runs</text><text fill="#FFFFFF" style="font-size:4px; font-family:Arial" x="10" y="280">ATHLETE</text><text fill="#FFFFFF" style="font-size:9px; font-family:Arial" x="10" y="290">glennzhou</text><text fill="#FFFFFF" style="font-size:4px; font-family:Arial" x="120" y="280">STATISTICS</text><text fill="#FFFFFF" style="font-size:3px; font-family:Arial" x="120" y="285">Number: 3</text><text fill="#FFFFFF" style="font-size:3px; font-family:Arial" x="120" y="290">Weekly: 1.5</text><text fill="#FFFFFF" style="font-size:3px; font-family:Arial" x="141" y="285">Total: 36.1 km</text><text fill="#FFFFFF" style="font-size:3px; font-family:Arial" x="141" y="290">Avg: 12.0 km</text><text fill="#FFFFFF" style="font-size:3px; font-family:Arial" x="167" y="285">Min: 10.6 km</text><text fill="#FFFFFF" style="font-size:3px; font-family:Arial" x="167" y="290">Max: 14.6 km</text><polyline fill="none" points="67.54399797716178,115.48806431081175 67.21473517938284,115.5 66.99522664753022,112.03857693709142 67.11412710230798,111.54919147862529 66.89461857039714,104.9481689631939 66.64767147204839,102.871064022067 66.70254860504065,99.12259132591134 66.56535577267641,98.38242666369479 65.98914587649051,98.29885926357383 65.89768398820888,97.95265055072377 64.92818797245855,97.86908271012362 56.34906285209581,98.33467387410201 55.471028724627104,97.30798213383241 55.18749687098898,96.62749327517668 54.62957935250597,92.87873353073519 53.80642235802952,92.48474558640737 52.26986263494473,92.54444085185241 51.32780518569052,92.36535492437542 51.39182850747602,92.54444085185241 51.373536129831336,92.12657307578047 50.57781770185102,91.01622829304688 50.239408715220634,90.19241432744457 50.239408715220634,84.85533089096134 50.440624869428575,83.45831846651708 51.236343297408894,82.61054711748147 53.33996672782814,82.04934151524503 53.93446900160052,81.16573337460432 53.01985011884244,71.34987440609984 52.61741781042656,70.10788099235651 52.370470712077804,67.80297767466982 51.21805091982242,67.898519003611 49.54429836431518,65.65326816017478 48.547363782068714,54.73664577853924 47.779083920584526,52.407417767943116 47.47725968930172,50.4245352962098 46.12362374278018,45.801603803105536 42.45600202283822,37.70188204653823 44.568771642050706,36.698320619652804 45.181566293525975,36.63858443053323 45.273028181807604,36.770003988742246 45.236443426518235,36.61468994261668 45.49253671366023,36.519111920832074 45.648021923727356,36.578848197597836 46.34313227463281,38.048346810770454 46.95592692610808,37.95277047128184 47.22116640210152,38.108081965991005 46.77300314954482,38.179764094420534 47.67847584345145,37.22399719488021 46.45288654055912,37.94082342094043 50.321724414709024,35.94564143493335 51.94059983716579,34.5" stroke="#4dd2ff" stroke-linecap="round" stroke-linejoin="round" stroke-width="0.5"><title>2022-03-04 10.6km</title></polyline><polyline fill="none" points="157.53845519718016,115.45227834962861 157.46531801775564,115.4761391783104 157.41960728063714,115.4761391783104 157.39218083833111,115.48806959001377 157.33732795377728,115.5 157.20933788979892,115.46420876483171 157.20933788979892,115.38069582172466 157.20019574236358,115.30911323098553 157.20019574236358,115.26139146886271 157.20019574236358,115.20173922700633 157.17276930005755,115.09436508158251 157.17276930005755,115.04664319381118 157.17276930005755,114.98699079481594 157.1636271526222,114.9392688441585 157.15448500524508,114.87961636657565 157.1636271526222,114.83189435306849 157.15448500524508,114.7125891971009 157.15448500524508,114.65293655366258 157.15448500524508,114.5932838665758 157.1636271526222,114.54556168546696 157.15448500524508,114.4978394764039 157.17276930005755,114.39046440394304 157.1636271526222,114.33081152479281 157.1636271526222,114.28308919003757 157.15448500524508,114.1757138347457 157.14534285780974,114.08026895573857 157.15448500524508,113.98482396498002 157.1362007103744,113.92517078901437 157.11791641550371,113.87744821680826 157.11791641550371,113.77007232722099 157.11791641550371,113.72234966423275 157.11791641550371,113.6626962962182 157.11791641550371,113.61497357035842 157.12705856293906,113.5553201237708 157.1362007103744,113.42408238763164 157.14534285780974,113.36442880136019 157.15448500524508,113.30477517144755 157.11791641550371,113.10195250318793 157.10877426812658,113.03036791155318 157.09963212069124,112.97071403719019 157.0904899731977,112.9229909062924 157.0904899731977,112.82754456062685 157.08134782582056,112.76789053785615 157.07220567838522,112.72016728820017 157.07220567838522,112.67244401061907 157.07220567838522,112.61278987432888 157.07220567838522,112.56506653386896 157.05392138357274,112.48155062086153 157.0447792360792,112.43382720361114 157.0447792360792,112.39803462228883 157.03563708864385,112.36224202530138 157.02649494126672,112.32644941255421 157.01735279383138,112.27872590450716 157.01735279383138,112.23100236846949 157.00821064639604,112.13555521264061 157.00821064639604,112.06396977241093 156.98992635152536,112.00431519089761 157.01735279383138,111.82535118437954 157.02649494126672,111.76569642824325 157.06306353094988,111.67024872760521 157.10877426812658,111.5867318978926 157.10877426812658,111.5151459757617 157.09963212069124,111.3719739428634 157.07220567838522,111.30038783212512 157.05392138357274,111.24073269187647 157.03563708864385,111.18107750792842 156.9990684989607,110.87086984766938 157.00821064639604,110.79928329688119 156.9990684989607,110.73962778987334 156.9990684989607,110.69190335285384 156.9990684989607,110.57259213803627 156.9990684989607,110.50100532534998 156.98992635152536,110.44134960008523 156.98992635152536,110.39362498842092 156.98992635152536,110.33396918455401 156.98078420409,110.2027262624324 156.98078420409,110.15500151106971 156.98992635152536,109.91637733522657 157.00821064639604,109.77320249440527 157.01735279383138,109.70161497973459 157.03563708864385,109.49878334671666 157.02649494126672,109.42719559101533 157.00821064639604,109.35560777247883 157.01735279383138,109.21243194676208 156.98992635152536,109.0692558695664 156.97164205671288,108.99766773669398 156.97164205671288,108.92607954092091 156.98078420409,108.66358895192388 156.98078420409,108.60393188200396 156.9990684989607,108.54427476840647 156.9990684989607,108.4846176111896 156.9990684989607,108.35337171159335 156.98078420409,108.30564587750996 156.96249990921933,108.2340570740198 156.93507346697152,108.1386052382295 156.92593131953618,108.10281077097898 156.91678917210083,108.055084790205 156.9076470247237,108.00735878152773 156.96249990921933,107.73293368917075 156.9533577618422,107.66134438269364 156.94421561434865,107.58975501338864 156.92593131953618,107.45850767297816 156.91678917210083,107.38691812553589 156.89850487723015,107.30339690736582 156.88022058241768,107.13635421423533 156.87107843498234,106.99317449058435 156.88022058241768,106.8619261895874 156.88022058241768,106.79033611820341 156.88022058241768,106.730677677333 156.87107843498234,106.65908749063965 156.87107843498234,106.61136066459585 156.88936272985302,106.51590692866012 156.87107843498234,106.49204347722116 156.88022058241768,106.49204347722116 156.88936272985302,106.46818001877546 156.88022058241768,106.42045308094384 156.88936272985302,106.39658960157249 156.87107843498234,106.241476815223 156.87107843498234,106.18181797265424 156.861936287547,106.09829551967414 156.85279414011165,106.03863657232432 156.88022058241768,105.84772764733498 156.861936287547,105.83579582468519 156.861936287547,105.7880685165801 156.85279414011165,105.72840934214037 156.861936287547,105.63295457225468 156.861936287547,105.56136342151149 156.861936287547,105.50170408109989 156.85279414011165,105.44204469714168 156.861936287547,105.35852148615959 156.88022058241768,105.13181519638601 156.88936272985302,105.06022360549105 156.88936272985302,104.98863195168087 156.88936272985302,104.91704023502098 156.87107843498234,104.77385661301378 156.8436519926763,104.630672739484 156.82536769780563,104.54714869712188 156.73394622356864,104.38010035562911 156.73394622356864,104.32044015071006 156.73394622356864,104.24884784714232 156.74308837100398,104.20111960986833 156.74308837100398,104.1295272014977 156.76137266581645,104.01020638115006 156.76137266581645,103.96247800412675 156.76137266581645,103.83122482313775 156.7705148132518,103.79542846438562 156.7522305183811,103.72383569971134 156.7248040760751,103.69997143084765 156.71566192869795,103.50905702836462 156.7248040760751,103.34200655936729 156.71566192869795,103.2226845861951 156.7065197812626,103.17495574801433 156.66995119157946,103.0437012989205 156.65166689670878,102.97210787395306 156.64252474927343,102.84085309822694 156.64252474927343,102.76925949507859 156.65166689670878,102.72153039139812 156.6790933389566,102.56641061136907 156.7065197812626,102.49481676717551 156.73394622356864,102.33969655574037 156.73394622356864,102.14877896713006 156.73394622356864,102.08911712895497 156.7248040760751,102.01752286552073 156.7248040760751,101.9459285392295 156.69737763382727,101.79080728312692 156.6790933389566,101.74307760650117 156.66080904414412,101.69534790187026 156.66080904414412,101.56409107013314 156.66080904414412,101.50442880400806 156.65166689670878,101.44476649421267 156.65166689670878,101.38510414071061 156.6333826018381,101.25384680933348 156.6333826018381,101.18225181222806 156.62424045440275,101.11065675221471 156.6333826018381,101.05099415417499 156.64252474927343,100.91973628475534 156.65166689670878,100.8600735469372 156.66080904414412,100.7884782039473 156.66080904414412,100.69301764876582 156.65166689670878,100.63335474504856 156.64252474927343,100.58562439055822 156.6333826018381,100.52596140818787 156.6333826018381,100.46629838215449 156.62424045440275,100.34697219903319 156.6333826018381,100.28730904196709 156.62424045440275,100.23957848488499 156.62424045440275,100.14411728682899 156.6150983069674,99.98899260150938 156.6150983069674,99.90546380253363 156.6150983069674,99.83386762096052 156.62424045440275,99.7622713765304 156.6333826018381,99.65487689190923 156.6333826018381,99.60714596448088 156.65166689670878,99.55941500904737 156.65166689670878,99.48781852350658 156.66995119157946,99.35655813667836 156.68823548639193,99.21336474633426 156.69737763382727,99.09403672883491 156.66995119157946,99.02243983450899 156.6333826018381,98.93891004493344 156.6150983069674,98.87924585715518 156.59681401209673,98.75991735047864 156.59681401209673,98.70025303159491 156.60595615959028,98.62865579135541 156.5876718647196,98.50932691783237 156.56024542247178,98.35419912102952 156.50539253785973,98.38999786955537 156.50539253785973,98.38999786955537 156.4962503904244,98.38999786955537 156.4962503904244,98.38999786955537 156.48710824304726,98.38999786955537 156.50539253785973,98.40193078226002 156.45968180074124,98.37806495510449 156.39568676875206,98.36613203892921 156.28598099958617,98.36613203892921 156.24027026246767,98.36613203892921 156.14884878817247,98.36613203892921 155.98429013451096,98.27066864659719 155.96600583958207,98.22293690848892 155.98429013451096,98.19907102894649 156.00257442932343,98.21100396957627 156.00257442932343,98.22293690848892 156.00257442932343,98.22293690848892 156.01171657675877,98.22293690848892 155.9934322818881,98.22293690848892 155.9934322818881,98.22293690848892 155.9934322818881,98.23486984561896 156.00257442932343,98.23486984561896 156.00257442932343,98.23486984561896 156.00257442932343,98.23486984561896 156.00257442932343,98.23486984561896 156.03000087162945,98.21100396957627 156.0391430190648,98.12747334839514 156.03000087162945,98.06780856658588 155.89286866015755,97.9246129119856 155.6551728270715,97.88881395901262 155.49975632078713,97.88881395901262 155.45404558366863,97.88881395901262 155.3991926991148,97.88881395901262 155.32605551969027,97.8768809712492 155.25291834026575,97.86494798165222 155.11578612885205,97.8768809712492 154.97865391743835,97.84108199726325 154.9238010328845,97.84108199726325 154.7592423791648,97.86494798165222 154.6678209049278,97.86494798165222 154.59468372544507,97.88881395901262 154.52154654607875,97.90074694505893 154.32041930261767,97.91267992940993 154.24728212319314,97.93654589280777 154.1924292386975,97.9246129119856 154.11929205921479,97.93654589280777 153.97301770036574,97.93654589280777 153.90902266837656,97.94847887189098 153.83588548895204,97.97234482478234 153.77189045696286,97.97234482478234 153.63475824554916,97.98427779864869 153.56162106612464,97.99621077071788 153.48848388670012,97.99621077071788 153.42448885471094,97.99621077071788 153.2782144958619,97.99621077071788 153.15936657931888,98.00814374107722 153.0496608102112,97.97234482478234 152.9125285987393,97.97234482478234 152.7753963873256,97.97234482478234 152.71140135533642,97.98427779864869 152.6382641759119,98.03200967652083 152.5468427016749,98.03200967652083 152.46456337481504,98.0439426416051 152.4279947851319,98.0439426416051 152.20858324685832,98.02007670965395 152.17201465711696,98.02007670965395 151.89775023428956,98.02007670965395 151.87946593941888,98.02007670965395 151.7697601703112,98.05587560495769 151.61434366402682,98.07974152645329 151.53206433716696,98.09167448455264 151.46806930517778,98.09167448455264 151.41321642062394,98.09167448455264 151.30351065145805,98.07974152645329 151.2669420617749,98.09167448455264 151.20294702978572,98.07974152645329 151.02924622863065,98.07974152645329 150.95610904926434,98.09167448455264 150.8829718697816,98.10360744090576 150.8098346903571,98.11554039553448 150.68184462637873,98.12747334839514 150.6087074469542,98.12747334839514 150.54471241502324,98.12747334839514 150.41672235098667,98.1632721965434 150.29787443444366,98.15133924891416 150.1698843704653,98.12747334839514 150.05103645386407,98.11554039553448 149.88647780014435,98.07974152645329 149.785914178472,98.06780856658588 149.74934558878886,98.07974152645329 149.68535055679968,98.07974152645329 149.6213555248105,98.09167448455264 149.56650264019845,98.09167448455264 149.5116497556446,98.10360744090576 149.40194398647873,98.11554039553448 149.3288068070542,98.10360744090576 149.26481177506503,98.10360744090576 149.145963858522,98.10360744090576 149.09111097396817,98.10360744090576 149.01797379454365,98.11554039553448 148.94483661511913,98.11554039553448 148.83513084601145,98.15133924891416 148.72542507684557,98.13940629950957 148.6614300448564,98.12747334839514 148.53343998087803,98.12747334839514 148.4603028014535,98.13940629950957 148.387165622029,98.1632721965434 148.3231705900398,98.17520514242642 148.20432267343858,98.19907102894649 148.14946978888474,98.19907102894649 148.10375905176625,98.21100396957627 148.0489061672124,98.21100396957627 147.99405328260036,98.19907102894649 147.82949462893885,98.22293690848892 147.69236241752515,98.23486984561896 147.64665168040665,98.21100396957627 147.52780376380542,98.22293690848892 147.48209302668693,98.23486984561896 147.4089558472624,98.23486984561896 147.34496081527323,98.24680278104643 147.28096578328405,98.24680278104643 147.16211786668282,98.24680278104643 147.09812283475185,98.25873571467673 147.03412780270446,98.25873571467673 146.96099062327994,98.27066864659719 146.9061377387261,98.28260157674231 146.79643196956022,98.29453450514848 146.73243693762925,98.29453450514848 146.69586834788788,98.29453450514848 146.586162578722,98.29453450514848 146.4490303673665,98.31840035676578 146.34846674563596,98.30646743182297 146.3118981559528,98.27066864659719 146.2661874188343,98.22293690848892 146.22961882909294,98.18713808656321 146.18390809197444,98.1632721965434 146.10162876511458,98.0439426416051 146.06506017537322,98.00814374107722 146.0102072908776,97.93654589280777 145.97363870113622,97.8768809712492 145.90964366908884,97.76948400225956 145.87307507940568,97.72175197064644 145.82736434228718,97.67401991102815 145.79079575254582,97.62628782351385 145.763369310298,97.60242176926113 145.64452139369678,97.447292246281 145.58966850914294,97.41149308366585 145.55309991945978,97.38762696651975 145.47082059259992,97.28022935285844 145.4433941502939,97.22056395075197 145.41596770798787,97.17283159766521 145.3976834131754,97.12509921659512 145.37025697086938,97.06543370093277 145.3062619388802,96.94610253861902 145.28797764400952,96.88643689194578 145.26969334919704,96.83870434317942 145.25140905432636,96.77903861783852 145.22398261207854,96.70743968980241 145.18741402233718,96.600041179845 145.17827187490184,96.5403752797938 145.15998758003116,96.49264252830471 145.14170328521868,96.42104334865871 145.13256113772513,96.36137731762574 145.13256113772513,96.30171124284243 145.11427684291266,96.18237896225764 145.09599254810018,96.12271275648527 145.08685040060664,96.06304650699167 145.08685040060664,96.01531347593846 145.0777082531713,95.95564714785723 145.06856610579416,95.91984732999845 145.05028181086527,95.81244778214023 145.05028181086527,95.75278130548395 145.05028181086527,95.71698139857472 145.05028181086527,95.68118147586938 145.0319975160528,95.6095815833396 145.00457107374677,95.46638160959992 144.9862867789343,95.39478152836091 144.97714463149896,95.33511474592524 144.95886033662828,95.28738128853001 144.94971818919294,95.15611413659644 144.94971818919294,95.09644717942865 144.94971818919294,95.03678017859784 144.9405760417576,94.98904654647049 144.9405760417576,94.91744604588894 144.9222917468869,94.79811173841154 144.9222917468869,94.72651107003912 144.9222917468869,94.66684379838262 144.91314959950978,94.60717648301943 144.90400745207444,94.54750912397867 144.90400745207444,94.41624078027235 144.8948653046391,94.34463977644918 144.88572315720376,94.28497222519218 144.87658100976842,94.22530463021394 144.85829671495594,94.08210222411435 144.85829671495594,94.02243448061199 144.8491545675206,93.9508331308025 144.8491545675206,93.90309886261821 144.84001242002705,93.8553645664797 144.84001242002705,93.80763024240878 144.81258597777924,93.6882943098608 144.81258597777924,93.64055988789187 144.79430168290855,93.56895820253703 144.78515953553142,93.50929008336243 144.77601738809608,93.44962192050298 144.7577330932254,93.30641815134732 144.74859094579006,93.24674983996374 144.73944879835472,93.17514780859347 144.73030665091937,93.11547940109449 144.70288020867156,92.99614245496923 144.68459591380088,92.92454020346486 144.62974302924704,92.85293788900162 144.60231658699922,92.80520297777548 144.54746370238718,92.75746803852235 144.49261081777513,92.70973307138047 144.3920471961028,92.62619681155775 144.35547860641964,92.602329293004 144.3006257218076,92.57846176748717 144.24577283725375,92.55459423497086 144.19091995269991,92.53072669544781 144.04464559385087,92.49492537309561 143.94408197212033,92.48299159549788 143.87094479275402,92.45912403498369 143.80694976070663,92.45912403498369 143.74295472877566,92.44719025213999 143.6881018441636,92.44719025213999 143.56011178018525,92.45912403498369 143.49611674819607,92.47105781611754 143.44126386364223,92.45912403498369 143.3681266842177,92.48299159549788 143.30413165217033,92.48299159549788 143.17614158819197,92.49492537309561 143.10300440882565,92.49492537309561 143.0481515242136,92.50685914895439 142.98415649222443,92.50685914895439 142.84702428081073,92.50685914895439 142.7921713962569,92.50685914895439 142.73731851170305,92.50685914895439 142.66418133227853,92.50685914895439 142.591044152854,92.50685914895439 142.46305408887565,92.49492537309561 142.39905905688647,92.50685914895439 142.32592187746195,92.50685914895439 142.2710689929081,92.51879292305239 142.21621610829607,92.50685914895439 142.07908389688237,92.50685914895439 141.9236673906562,92.48299159549788 141.859672358667,92.48299159549788 141.81396162154851,92.48299159549788 141.7408244420658,92.45912403498369 141.57626578834606,92.41138889308786 141.51227075635688,92.39945510325197 141.4208492821199,92.39945510325197 141.3294278078247,92.33978612775536 141.34771210269537,92.35171992632968 141.34771210269537,92.37558751826873 141.36599639756605,92.37558751826873 141.37513854494318,92.38752131163346 141.39342283981387,92.38752131163346 141.39342283981387,92.39945510325197 141.39342283981387,92.41138889308786 141.39342283981387,92.41138889308786 141.39342283981387,92.41138889308786 141.39342283981387,92.41138889308786 141.39342283981387,92.44719025213999 141.36599639756605,92.44719025213999 141.37513854494318,92.47105781611754 141.37513854494318,92.47105781611754 141.37513854494318,92.47105781611754 141.37513854494318,92.47105781611754 141.37513854494318,92.47105781611754 141.37513854494318,92.47105781611754 141.37513854494318,92.47105781611754 141.37513854494318,92.47105781611754 141.39342283981387,92.49492537309561 141.4025649872492,92.48299159549788 141.4025649872492,92.47105781611754 141.39342283981387,92.44719025213999 141.38428069237852,92.42332268117752 141.38428069237852,92.43525646751368 141.37513854494318,92.42332268117752 141.37513854494318,92.43525646751368 141.36599639756605,92.43525646751368 141.36599639756605,92.42332268117752 141.37513854494318,92.44719025213999 141.37513854494318,92.43525646751368 141.37513854494318,92.42332268117752 141.37513854494318,92.42332268117752 141.38428069237852,92.42332268117752 141.38428069237852,92.41138889308786 141.38428069237852,92.41138889308786 141.38428069237852,92.41138889308786 141.39342283981387,92.45912403498369 141.39342283981387,92.45912403498369 141.41170713468455,92.48299159549788 141.4208492821199,92.49492537309561 141.39342283981387,92.51879292305239 141.4208492821199,92.49492537309561 141.4482757244259,92.50685914895439 141.45741787180305,92.49492537309561 141.4665600192384,92.49492537309561 141.4665600192384,92.48299159549788 141.45741787180305,92.45912403498369 141.43913357699057,92.44719025213999 141.42999142949702,92.43525646751368 141.4208492821199,92.42332268117752 141.41170713468455,92.41138889308786 141.37513854494318,92.37558751826873 141.37513854494318,92.37558751826873 141.37513854494318,92.35171992632968 141.37513854494318,92.35171992632968 141.36599639756605,92.38752131163346 141.36599639756605,92.37558751826873 141.34771210269537,92.36365372318687 141.34771210269537,92.36365372318687 141.34771210269537,92.36365372318687 141.34771210269537,92.37558751826873 141.34771210269537,92.37558751826873 141.34771210269537,92.37558751826873 141.3568542500725,92.38752131163346 141.33856995526003,92.38752131163346 141.34771210269537,92.38752131163346 141.3568542500725,92.38752131163346 141.36599639756605,92.45912403498369 141.37513854494318,92.44719025213999 141.37513854494318,92.47105781611754 141.38428069237852,92.43525646751368 141.38428069237852,92.44719025213999 141.41170713468455,92.47105781611754 141.42999142949702,92.48299159549788 141.4208492821199,92.48299159549788 141.41170713468455,92.44719025213999 141.43913357699057,92.43525646751368 141.42999142949702,92.43525646751368 141.4208492821199,92.43525646751368 141.42999142949702,92.47105781611754 141.42999142949702,92.47105781611754 141.42999142949702,92.44719025213999 141.41170713468455,92.45912403498369 141.39342283981387,92.45912403498369 141.38428069237852,92.45912403498369 141.38428069237852,92.45912403498369 141.36599639756605,92.45912403498369 141.37513854494318,92.10110978900775 141.33856995526003,92.05337443737517 141.2837170707062,92.00563905780291 141.24714848096482,91.95790365021094 141.20143774384633,91.92210207624157 141.1283005644218,91.81469725978968 141.0368790901266,91.69535840886965 140.9911683530081,91.61182110923255 140.95459976326674,91.55215155707992 140.92717332101893,91.50441588385002 140.8540361415362,91.39701051696466 140.8083254044177,91.33734080749855 140.78089896216989,91.3015389608554 140.75347251986386,91.26573709849617 140.7169039301807,91.19413332655677 140.6254824558855,91.0628595813032 140.579771718767,90.99125563110283 140.54320312902564,90.91965161797998 140.50663453934249,90.85998155897687 140.47920809703646,90.81224548035243 140.40607091761194,90.68097111989482 140.3969287701766,90.60936683415639 140.34207588562276,90.4900262181036 140.31464944331674,90.43035584454628 140.28722300106892,90.35875133858644 140.26893870619824,90.29908086887008 140.24151226395043,90.16780568179092 140.23237011651509,90.10813507229614 140.22322796907974,90.0365302831924 140.22322796907974,89.96492543118075 140.20494367420906,89.83364970576076 140.22322796907974,89.69043958231487 140.22322796907974,89.61883442619728 140.23237011651509,89.55916341474222 140.22322796907974,89.47562392523105 140.24151226395043,89.35628164884838 140.2597965587629,89.28467619909497 140.25065441132756,89.0698594723799 140.25065441132756,88.99825377097295 140.25065441132756,88.95051660171157 140.25065441132756,88.89084510084649 140.2597965587629,88.84310786868446 140.2597965587629,88.73569899408903 140.2597965587629,88.67602733591775 140.2597965587629,88.60442128846626 140.24151226395043,88.53281517804862 140.25065441132756,88.38960276845319 140.26893870619824,88.32993085684575 140.27808085363358,88.2583245052374 140.28722300106892,88.19865249752183 140.27808085363358,88.05543950064748 140.2597965587629,87.98383290785569 140.27808085363358,87.79288168603671 140.28722300106892,87.73320933747164 140.27808085363358,87.66160246148502 140.26893870619824,87.60193001678272 140.26893870619824,87.47065048459626 140.2597965587629,87.39904337792541 140.2597965587629,87.351305271819 140.26893870619824,87.29163259985944 140.25065441132756,87.23195988422958 140.25065441132756,87.06487604793801 140.25065441132756,86.98133400134247 140.23237011651509,86.90972646467708 140.23237011651509,86.86198807191249 140.24151226395043,86.71877272587153 140.23237011651509,86.67103422125365 140.24151226395043,86.61136105115293 140.25065441132756,86.55168783733825 140.24151226395043,86.48007992307248 140.25065441132756,86.34879858350905 140.24151226395043,86.30105986214039 140.25065441132756,86.2533211127884 140.25065441132756,86.19364763678459 140.2597965587629,86.13397411709593 140.26893870619824,86.00269221991766 140.27808085363358,85.9310838231977 140.27808085363358,85.85947536355525 140.26893870619824,85.65658438621904 140.26893870619824,85.58497568539315 140.26893870619824,85.5253017199284 140.29636514844606,85.46562771074969 140.28722300106892,85.33434473678062 140.27808085363358,85.27467058777984 140.26893870619824,85.20306155131402 140.25065441132756,85.1433873061469 140.25065441132756,85.01210381299461 140.24151226395043,84.83308052688517 140.2597965587629,84.73760128017602 140.25065441132756,84.66599177168973 140.25065441132756,84.48696772518451 140.26893870619824,84.40342303554644 140.2597965587629,84.24826838464651 140.26893870619824,84.17665844611474 140.28722300106892,84.04537339537637 140.29636514844606,83.97376327854727 140.3237915908103,83.90215309879568 140.3512180330581,83.78280265930516 140.36950232792879,83.72312737404718 140.37864447530592,83.65151697399415 140.38778662274126,83.56797142775031 140.4426395072951,83.43668539627834 140.47920809703646,83.37700985750416 140.51577668671962,83.31733427501604 140.579771718767,83.20991811641579 140.6254824558855,83.17411269872537 140.6711931930622,83.11443696764763 140.7169039301807,83.06669635134313 140.81746755191125,82.94734468811657 140.8723204364651,82.88766879095056 140.92717332101893,82.82799285008514 140.97288405813742,82.80412246150081 141.07344767986797,82.70864083720517 141.1283005644218,82.6728351992715 141.18315344897565,82.62509432418301 141.23800633352948,82.58928864950576 141.36599639756605,82.51767725299578 141.42999142949702,82.49380677349109 141.50312860897975,82.48187153114122 141.55798149347538,82.45800104112277 141.6768294100766,82.42219529303838 141.7408244420658,82.39832478560129 141.86881450604415,82.38638952922338 142.00594671745785,82.36251901125797 142.05165745457634,82.33864848630765 142.1339367814362,82.32671322122769 142.20707396086073,82.29090741540858 142.34420617227443,82.2431663165844 142.4082012043218,82.21929575662944 142.48133838374633,82.19542518978415 142.55447556311265,82.17155461585207 142.69160777458455,82.13574874185724 142.75560280651553,82.1118781504847 142.8195978385629,82.09994285216817 142.89273501792923,82.08800755210541 143.0024407870951,82.07607225026732 143.13043085107347,82.1118781504847 143.22185232531046,82.07607225026732 143.2767052099225,82.06413694672665 143.3407002419117,82.02833102556906 143.45040601107758,81.95671913604019 143.49611674819607,81.90897784133267 143.54182748531457,81.86123651868547 143.58753822249128,81.82543050836102 143.6606754019158,81.7180123829603 143.7063861390343,81.6702709484016 143.74295472877566,81.62252948589594 143.78866546589416,81.55091723969235 143.85266049788333,81.40769255845953 143.88008694018936,81.3480155336074 143.91665552987251,81.2047904957144 143.9349398247432,81.14511332228722 143.95322411961388,81.01382338687108 143.95322411961388,80.930275136001 143.95322411961388,80.8705977614809 143.95322411961388,80.79898485441663 143.9349398247432,80.65575885136786 143.91665552987251,80.5960812758276 143.91665552987251,80.52446812743437 143.89837123500183,80.45285491612594 143.89837123500183,80.30962830461795 143.8892290876247,80.21414375711174 143.88008694018936,80.14253027303494 143.86180264531868,80.01123872206517 143.85266049788333,79.9396250596401 143.85266049788333,79.86801133429253 143.8252340555773,79.80833318173973 143.7978076133295,79.66510543724144 143.78866546589416,79.5934914706013 143.78866546589416,79.5338131169483 143.77038117102347,79.3905848899085 143.77038117102347,79.31897068193939 143.77038117102347,79.24735641105508 143.7520968761528,79.11606341759762 143.74295472877566,79.0444489683432 143.73381258134032,78.9847702125553 143.73381258134032,78.9131556479042 143.71552828646963,78.78186211588763 143.71552828646963,78.71024737286643 143.71552828646963,78.63863256693003 143.7063861390343,78.57895351386833 143.69724399159895,78.44765944332903 143.6881018441636,78.39991609247954 143.66981754929293,78.34023686456203 143.65153325448046,78.2686217333976 143.62410681217443,78.19700653925247 143.60582251736196,78.06571185319626 143.65153325448046,77.8986092194391 143.62410681217443,77.82699370008777 143.62410681217443,77.7911859167798 143.60582251736196,77.73150624298432 143.57839607505593,77.65989057670959 143.56011178018525,77.54053099307203 143.5509696327499,77.45697918046062 143.54182748531457,77.39729926182918 143.5509696327499,77.2660032870408 143.5509696327499,77.19438721158804 143.54182748531457,77.11083504401904 143.5235431905021,76.96760255739355 143.51440104300855,76.89598621963523 143.51440104300855,76.82436981891806 143.5052588956314,76.75275335526385 143.5052588956314,76.60952023910795 143.5052588956314,76.53790358659171 143.5052588956314,76.46628687113116 143.48697460076073,76.40660622683208 143.4778324533254,76.29918095687026 143.4595481584547,76.2514363470109 143.4595481584547,76.20369170913182 143.45040601107758,76.14401087247097 143.45040601107758,76.09626617164758 143.44126386364223,76.03658525626088 143.4321217162651,75.91722329441836 143.42297956877155,75.85754224786069 143.4138374213362,75.79786115763272 143.4138374213362,75.72624379161425 143.40469527390087,75.67849884599855 143.40469527390087,75.54720010120218 143.40469527390087,75.463646244345 143.39555312646553,75.39202858452336 143.39555312646553,75.32041086177196 143.39555312646553,75.20104785061267 143.39555312646553,75.16523891315592 143.3864109790302,75.09362099102145 143.3681266842177,75.05781200635101 143.3864109790302,74.99813033027021 143.3681266842177,74.84295776781073 143.3681266842177,74.78327593434369 143.37726883165305,74.69972129397502 143.3681266842177,74.65197574675403 143.35898453678237,74.49680252499093 143.34984238940524,74.42518401527195 143.35898453678237,74.36550187571265 143.35898453678237,74.31775613263017 143.3681266842177,74.30581969246123 143.34984238940524,74.28194680692104 143.33155809453456,74.19839165244775 143.322415947041,74.1267728803723 143.2767052099225,73.99547163473471 143.26756306254538,73.92385268426005 143.25842091505183,73.86417017746862 143.2492787676747,73.7209319827598 143.2492787676747,73.64931279094162 143.24013662023935,73.57769353616459 143.230994472804,73.51801077574055 143.230994472804,73.38670854895463 143.22185232531046,73.31508906334784 143.22185232531046,73.24346951477492 143.18528373568552,73.11216684546525 143.18528373568552,73.04054711850767 143.17614158819197,72.98086396459257 143.18528373568552,72.92118076696352 143.16699944081483,72.86149752557685 143.1395729985088,72.74213091168349 143.13043085107347,72.67051085937419 143.13043085107347,72.52727056590811 143.13043085107347,72.46758703593514 143.12128870363813,72.3362831161212 143.12128870363813,72.26466270706442 143.10300440882565,72.18110548354161 143.112146556261,72.14529521865188 143.10300440882565,72.08561140884558 143.0938622613903,71.96624365809112 143.0938622613903,71.83493893020932 143.07557796651963,71.7633180803532 143.0664358190843,71.67976034260937 143.0481515242136,71.60813935632177 143.02986722940113,71.47683405128919 143.02986722940113,71.39327601966943 143.0207250819658,71.33359165893489 143.01158293453045,71.26197036830854 142.98415649222443,71.11872759815742 142.9750143447891,71.05904303626448 142.9567300499184,70.99935843065032 142.94758790254127,70.92773684615531 142.92016146023525,70.80836739875667 142.90187716542277,70.7367456463544 142.8835928705521,70.67706080462813 142.8653085756814,70.61737591911515 142.82873998594005,70.48606901710446 142.80131354369223,70.43832100029249 142.77388710144442,70.36669892253849 142.75560280651553,70.30701380967366 142.73731851170305,70.24732865304395 142.682465627091,70.15183231152332 142.64589703740785,70.0802099819266 142.64589703740785,70.0802099819266 142.64589703740785,70.12795820864994 142.61847059516003,70.09214704122132 142.6093284477247,69.96083929260931 142.60018630023114,69.81759423454787 142.58190200541867,69.75790871939535 142.5636177106062,69.63853755778837 142.5636177106062,69.56691477684944 142.5636177106062,69.49529193295893 142.55447556311265,69.42366902613139 142.5453334157355,69.29236019999371 142.52704912086483,69.22073711470148 142.5179069734295,69.14911396643583 142.50876482599415,69.01780469775986 142.49048053118167,68.88649521743355 142.46305408887565,68.8268090200072 142.44476979400497,68.76712277887418 142.41734335175715,68.6238756216917 142.41734335175715,68.55225194869126 142.41734335175715,68.49256550638529 142.4082012043218,68.44481632105453 142.4082012043218,68.39706710776227 142.41734335175715,68.28963127541647 142.4082012043218,68.21800730848918 142.39905905688647,68.13444593414897 142.37163261458045,68.06282183079747 142.35334831976797,67.93151081104588 142.35334831976797,67.87182391393435 142.32592187746195,67.83601175466902 142.37163261458045,67.78826218447648 142.3624904671451,67.80019957963668 142.3167797300266,67.78826218447648 142.2253582557314,67.81213697304338 142.1522210763069,67.83601175466902 142.06994174950523,67.8598865292297 141.93280953803333,67.87182391393435 141.859672358667,67.88376129684184 141.80481947405497,67.8956986780031 141.74996658950113,67.8956986780031 141.7225401471951,67.90763605744723 141.61283437808743,67.93151081104588 141.54883934609825,67.93151081104588 141.4025649872492,67.95538555765961 141.219722038717,67.88376129684184 141.18315344897565,67.84794914282975 141.13744271185715,67.78826218447648 141.11001626955112,67.74051258629333 141.07344767986797,67.7166377767062 140.9454576158896,67.60920104698744 140.90888902614824,67.53757648177998 140.8723204364651,67.47788929600938 140.84489399415907,67.44207696355443 140.8083254044177,67.38238970781094 140.7169039301807,67.28689000762097 140.68033534043934,67.22720263818337 140.63462460332084,67.17945271111967 140.59805601357948,67.1317027560508 140.50663453934249,67.02426525482588 140.46092380216578,66.97651520881482 140.43349735991796,66.92876513482042 140.3969287701766,66.88101503282815 140.36036018043524,66.83326490283798 140.27808085363358,66.71388945538638 140.24151226395043,66.65420166606782 140.19580152683193,66.60645140310953 140.15923293709056,66.55870111219701 140.0769536102307,66.46320044630556 140.0312428731122,66.41545007140667 139.9855321359355,66.36769966849533 139.8941106616403,66.26026115961577 139.87582636682782,66.22444829184678 139.85754207195714,66.17669777696574 139.82097348227398,66.12894723413046 139.78440489253262,66.08119666326093 139.70212556573097,65.98569543756457 139.67469912336674,65.93794478273048 139.64727268111892,65.8663187480197 139.6198462388711,65.80663033764722 139.56499335425906,65.69919108868635 139.54670905938838,65.63950255588861 139.51928261714056,65.52012535894755 139.50099832226988,65.47237443120684 139.50099832226988,65.40074798709247 139.49185617483454,65.34105923552124 139.4827140273992,65.26943267593742 139.46442973258672,65.13811715310294 139.44614543765783,65.07842820914084 139.4370032902807,65.01873922139202 139.42786114284536,64.93517456507834 139.44614543765783,64.82773416671989 139.4370032902807,64.69641793182382 139.42786114284536,64.64866652116325 139.4370032902807,64.61285294484696 139.42786114284536,64.55316361591395 139.41871899541002,64.49347424328153 139.41871899541002,64.44572271369543 139.40043470053934,64.32634376719943 139.38215040572686,64.26665422835504 139.3912925531622,64.19502672397357 139.3912925531622,64.12339915666234 139.37300825829152,64.01595768749394 139.37300825829152,63.93239200243261 139.37300825829152,63.87270217490004 139.37300825829152,63.81301230360987 139.36386611085618,63.76526037508302 139.3455818159855,63.63394242730283 139.33643966855016,63.56231436657981 139.33643966855016,63.5026242678432 139.33643966855016,63.44293412533443 139.33643966855016,63.383243939118984 139.31815537373768,63.09673043634393 139.30901322630234,63.01316380820208 139.30901322630234,62.95347330703953 139.299871078867,62.881844647869 139.29072893143166,62.738587140644086 139.29072893143166,62.66695829250966 139.28158678405453,62.59532938142365 139.28158678405453,62.5356385740306 139.27244463656098,62.404318643813895 139.2541603417485,62.35656588945858 139.2541603417485,62.28493670538592 139.23587604687782,62.237183881043165 139.23587604687782,62.17749281114811 139.21759175200714,62.07004877524014 139.22673389944248,62.010357582934375 139.22673389944248,61.93872809437744 139.20844960463,61.879036805832584 139.19930745719466,61.807407201813476 139.19016530970111,61.6880243884807 139.18102316232398,61.61639461648883 139.17188101488864,61.5447647814799 139.15359672007617,61.485073204210494 139.15359672007617,61.353751580245444 139.14445457258262,61.29405986295751 139.14445457258262,61.25824481157906 139.1627388674533,61.24630645763682 139.14445457258262,61.15079956302361 139.12617027777014,61.103046073745645 139.10788598284125,61.03141578731447 139.09874383546412,60.95978543786623 139.08960168802878,60.90009343186102 139.05303309834562,60.768770864699036 139.04389095091028,60.709078718718956 139.04389095091028,60.63744808581396 139.04389095091028,60.57775584356568 139.01646450860426,60.45837122786179 139.01646450860426,60.39867885444255 139.00732236116892,60.350924924132414 139.00732236116892,60.303170965889876 138.99818021373358,60.2554169796058 138.9798959188629,60.195724457415054 138.96161162405042,60.064400754563394 138.94332732917974,60.0047080923614 138.9341851817444,59.90919974182907 138.9341851817444,59.849506965889304 138.95246947661508,59.78981414620648 138.96161162405042,59.6465512004288 138.97075377148576,59.56298103235895 138.99818021373358,59.47941077854193 138.9798959188629,59.467472163873026 138.9798959188629,59.45553354742151 138.95246947661508,59.40777906415315 138.96161162405042,59.39584043899231 138.9798959188629,59.40777906415315 138.9798959188629,59.40777906415315 138.9798959188629,59.40777906415315 138.96161162405042,59.40777906415315 138.97075377148576,59.36002455293783 138.9798959188629,59.300331374499365 138.9798959188629,59.19288354306627 138.97075377148576,59.12125157668925 138.96161162405042,59.07349689742841 138.94332732917974,58.97798745495675 138.92504303430906,58.94217138511158 138.90675873943837,58.8347230811778 138.90675873943837,58.739213358690904 138.91590088693192,58.69145845539606 138.92504303430906,58.66758099330764 138.9341851817444,58.631764787001885 138.9341851817444,58.595948564921855 138.92504303430906,58.48849980421801 138.87019014975522,58.35717334867513 138.8427637075074,58.08258098452643 138.85190585488454,58.01094804162858 138.86104800231988,57.93931503571366 138.8884744446259,57.85574311592063 138.86104800231988,57.724415640041116 138.8244794125785,57.664721262794046 138.7970529703307,57.61696572954679 138.76962652808288,57.521454578971316 138.76048438064754,57.330431941845745 138.7513422332122,57.24685939722258 138.74220008577686,57.17522571927111 138.74220008577686,57.10359197830985 138.76048438064754,56.97226328961551 138.7513422332122,56.900629370167735 138.7513422332122,56.84093438915443 138.74220008577686,56.76930035418627 138.74220008577686,56.72154429585498 138.7056314960937,56.44694641710521 138.69648934860015,56.38725110352971 138.68734720122302,56.31561666953348 138.67820505378768,56.243982172512915 138.66906290635234,56.10071298945695 138.6599207589752,56.029078303407005 138.6599207589752,55.96938268357917 138.6599207589752,55.89774788204522 138.65077861148166,55.802234715280065 138.64163646404631,55.742538929167495 138.64163646404631,55.68284309928276 138.63249431661097,55.62314722566953 138.59592572692782,55.444059342262335 138.57764143211534,55.38436329362594 138.55935713724466,55.3366064232323 138.5684992846218,55.121700159754255 138.55935713724466,55.06200387482386 138.55935713724466,55.00230754614313 138.5502149897511,54.9306718939406 138.5502149897511,54.8709754689844 138.5502149897511,54.72770387053606 138.5502149897511,54.739643180051644 138.5502149897511,54.75158248782827 138.5502149897511,54.763521793800464 138.5502149897511,54.763521793800464 138.5502149897511,54.763521793800464 138.5502149897511,54.75158248782827 138.54107284237398,54.71576455931063 138.51364640006796,54.64412865506165 138.50450425263261,54.58443202007766 138.4313670732663,54.47697796684952 138.39479848352494,54.42922056432144 138.37651418865426,54.32176630626782 138.33080345153576,54.21431190640578 138.30337700922973,54.08297855855926 138.2759505669237,53.96358442212659 138.26680841954658,53.89194785624568 138.25766627211124,53.832250669911446 138.23938197724055,53.77255343978322 138.2028133875574,53.66509831530129 138.18452909268672,53.617340436678205 138.16624479781603,53.58152200935001 138.14796050294535,53.521824595438375 138.12053406069754,53.41436914012593 138.1113919132622,53.35467160369444 138.0656811761437,53.22333686946513 138.04739688127302,53.151699652473326 138.02911258640233,53.080062372428074 138.01082829153165,53.02036459093506 137.96511755441315,52.88902931758639 137.93769111216534,52.81739180648583 137.91940681729466,52.75769383244187 137.90112252242398,52.697995814647584 137.8645539326826,52.56666002142447 137.8371274904348,52.50696186355344 137.8188431955641,52.44726366195391 137.78227460582275,52.39950506916648 137.76399031101028,52.26816879455873 137.76399031101028,52.19653073731024 137.76399031101028,52.136832308155135 137.7457060161978,52.06519413535716 137.71827957389178,51.9338573215864 137.70913742645644,51.86221897028008 137.69085313158575,51.80252029601979 137.67256883671507,51.742821578001895 137.63600024703192,51.623424010700546 137.61771595216123,51.57566493475315 137.5902895098552,51.504026268325106 137.57200521504274,51.44432733149006 137.5628630676074,51.37268854952708 137.5445787727367,51.22941079654265 137.53543662535958,51.16971165837458 137.49886803561822,51.07419294632564 137.48972588824108,51.014493694405246 137.45315729849972,50.88315518608579 137.46229944587685,50.692116977705155 137.46229944587685,50.632417445674946 137.48058374074753,50.4174987679653 137.407446561323,50.29809925751033 137.37087797163986,50.23839943663188 137.35259367676917,50.17869957198127 137.32516723446315,50.10705967662943 137.2703143499093,49.987659710976004 137.2428879076033,49.916019647571375 137.23374576016795,49.856319546590385 137.20631931786193,49.79661940183723 137.16975072823698,49.66527892927843 137.1514664333663,49.6294587636512 137.14232428593095,49.56975845258421 137.09661354875425,49.307076563905866 137.02347636938794,49.044393827876775 136.97776563221123,48.92499230412068 136.9686234847759,48.8533513058137 136.9503391899052,48.79365042575955 136.91377060028026,48.67424853434932 136.8314912734204,48.49514536893548 136.82234912592685,48.43544422627747 136.82234912592685,48.37574303984002 136.740069799067,48.12499757878686 136.7217855042545,48.06529616473563 136.67607476713601,47.82649007085274 136.68521691451315,47.778728768033034 136.71264335681917,47.68320607833448 136.6943590619485,47.647385040836525 136.66693261970067,47.51604110178596 136.64864832483,47.46827961687086 136.63950617739465,47.408577721362235 136.61207973508863,47.36081617340824 136.62122188258218,47.34887578205962 136.61207973508863,47.32499499407277 136.52980040828697,47.181710119177296 136.4018103442504,46.85931822875136 136.39266819681507,46.787675413092074 136.37438390194438,46.716032534401165 136.33781531226123,46.5966275965402 136.33781531226123,46.548865572382056 136.30124672257807,46.41751986140298 136.29210457514273,46.34587665704021 136.27382028027205,46.29811448581313 136.27382028027205,46.23841173235269 136.22810954315355,46.107065520613105 136.20068310084753,46.04736262707593 136.18239880603505,45.987659689788416 136.16411451110616,45.91601610722864 136.12754592148121,45.79660999619955 136.1001194791752,45.74884750277852 136.07269303686917,45.70108498130139 136.04526659462135,45.65332243187004 136.00869800488,45.593619205646974 135.9629872677615,45.47421262184798 135.93556082545547,45.41450926430116 135.8989922357723,45.35480586298945 135.86242364603095,45.30704311039881 135.8075707614771,45.175695396341325 135.7801443191711,45.115991819919145 135.7618600243586,45.04434747041523 135.7344335820526,44.99658453572192 135.6704385500634,44.88911783025105 135.6247278128867,44.82941404369922 135.60644351807423,44.76971021333884 135.56987492833287,44.71000633927906 135.51502204377903,44.60253925553843 135.487595601473,44.542835258864216 135.3504633900593,44.33984134272032 135.3047526529408,44.196551214845385 135.29561050550546,44.11296519047755 135.277326210693,44.05326083483669 135.24989976832876,43.981615550263086 135.23161547351629,43.88608840609231 135.20418903121026,43.82638388409396 135.17676258896245,43.766679318316164 135.14933614665642,43.6950337816088 135.08534111466724,43.51591966397973 135.03963037754875,43.468155832721095 135.01220393524272,43.444273906585295 134.99391964037204,43.3845690606322 134.94820890325354,43.289041216048645 134.92992460844107,43.24127725166909 134.90249816613505,43.181572256864456 134.86592957639368,43.13380822950421 134.83850313408766,43.026339065450884 134.81107669183984,42.96663391302718 134.79279239696916,42.90692871683132 134.76536595472135,42.84722347683419 134.73793951241532,42.78751819310855 134.67394448042614,42.66810749426077 134.65566018555546,42.608402079116786 134.62823374324944,42.56063771553454 134.60080730100162,42.50093222162832 134.5733808586956,42.441226683949935 134.51852797414176,42.33375660578895 134.49110153189395,42.27405094553251 134.47281723702326,42.21434524143842 134.46367508958792,42.17852179802139 134.4362486472819,42.14269833879371 134.3905379101634,42.02328669428243 134.38139576278627,41.97552198742778 134.3448271730449,41.89193368302949 134.3448271730449,41.89193368302949 134.3448271730449,41.90387487461703 134.3448271730449,41.90387487461703 134.3448271730449,41.90387487461703 134.3448271730449,41.90387487461703 134.3448271730449,41.90387487461703 134.32654287817422,41.91581606447289 134.28083214105573,41.7964040872248 134.2534056988079,41.748639247278334 134.19855281419586,41.64116825496603 134.17112637194805,41.581462086804095 134.13455778220668,41.5217558748991 134.09798919252353,41.37846078766597 134.04313630791148,41.247106736162095 134.00656771817012,41.19934157397074 133.9791412759223,41.12769377815857 133.94257268618094,41.0799285459434 133.89686194906244,40.94857401282934 133.87857765419176,40.88886733679101 133.85115121194394,40.79333656410745 133.86029335932108,40.805277916828345 133.86029335932108,40.805277916828345 133.85115121194394,40.78139520963305 133.80544047482545,40.68586431084259 133.77801403251942,40.62615744218783 133.7505875902134,40.57839191573294 133.73230329534272,40.542567752498144 133.69573470565956,40.50674357351818 133.64088182110572,40.39927094194718 133.60431323136436,40.339563863126386 133.58602893649368,40.30373959481949 133.5677446416812,40.25597387919697 133.54031819937518,40.184325253278075 133.48546531482134,40.06491073656798 133.46718102000887,40.0171448808469 133.43975457770284,39.95743752180715 133.42147028283216,39.90967160303262 133.40318598796148,39.849964165150595 133.34833310340764,39.71860764774465 133.32090666110162,39.658900069771335 133.30262236628914,39.58725091841188 133.27519592398312,39.52754324407579 133.23862733424176,39.50366016213229 133.2020587445586,39.36036152308225 133.17463230225258,39.30065368240321 133.14720586000476,39.25288737835217 133.11977941769874,39.205121046201384 133.10149512288626,39.16929627877107 133.05578438570956,39.085705093348224 133.03750009083888,39.037938663161185 133.0192157960264,38.990172204932605 132.99178935372038,38.942405718735245 132.98264720628504,38.894639204474515 132.94607861660188,38.85881430039444 132.89122573204804,38.703572867227194 132.86379928974202,38.631922875159944 132.836372847436,38.56027282001742 132.81808855262352,38.48862270182872 132.76323566806968,38.35726398805127 132.744951373199,38.309497130525415 132.71752493095119,38.24978851915512 132.69009848858695,38.21396333130542 132.6535298989038,38.15425464994041 132.63524560409132,38.10648767327075 132.58953486691462,37.987070109033084 132.57125057204394,37.93930303426896 132.5621084246086,37.903477709856816 132.53468198236078,37.819885224809696 132.46154480287805,37.7004672401963 132.57125057204394,37.62881636535167 132.67181419371627,37.62881636535167 132.72666707832832,37.6168745467221 132.77237781544682,37.58104908041423 132.81808855262352,37.5691072548143 132.90951002686052,37.53328176744981 132.955220763979,37.509398100490216 133.0192157960264,37.47357258685952 133.08321082795737,37.44968890234304 133.19291659712326,37.36609595140908 133.31176451372448,37.28250291466247 133.384901693149,37.270561045254 133.44889672513818,37.24667730119836 133.51289175712736,37.24667730119836 133.68659255822422,37.16308414180821 133.7962983273319,37.091432794055436 133.8420090645086,37.05560709648125 133.96999912848696,37.007839475270885 134.09798919252353,36.96007182600442 134.15284207707737,36.93618799086835 134.21683710906655,36.88842029954685 134.28083214105573,36.864536443390534 134.40882220503408,36.804826772342494 134.46367508958792,36.769000948661414 134.5733808586956,36.69734925409284 134.637375890743,36.68540729887172 134.70137092273217,36.68540729887172 134.76536595472135,36.66152338315442 134.82021883927519,36.63763946042309 135.1859047363978,36.63763946042309 135.26818406325765,36.709291207575006 135.277326210693,36.769000948661414 135.26818406325765,36.757059003954055 135.2590419158223,36.709291207575006 135.23161547351629,36.673465341867995 135.24075762095163,36.673465341867995 135.24075762095163,36.673465341867995 135.24989976832876,36.63763946042309 135.24075762095163,36.62569749645627 135.24075762095163,36.62569749645627 135.24075762095163,36.62569749645627 135.24075762095163,36.62569749645627 135.24075762095163,36.613755530699564 135.26818406325765,36.60181356318208 135.42360056954203,36.542103699473955 135.49673774890834,36.518219741701614 135.65215425519273,36.57792962296662 135.7161492871819,36.709291207575006 135.7344335820526,36.769000948661414 135.7618600243586,36.81676871004311 135.79842861404177,36.87647837237455 135.86242364603095,37.007839475270885 135.88070794090163,37.07949089660542 135.95384512032615,37.15114225490106 135.9904137100093,37.24667730119836 136.02698229975067,37.29444478229561 136.1001194791752,37.43774705747637 136.16411451110616,37.59299090428976 136.2372516905889,37.71240904653678 136.2829624277074,37.85571058603091 136.30124672257807,37.927361261208716 136.34695745969657,38.04677891304891 136.4018103442504,38.07066242241126 136.4018103442504,38.034837155726564 136.5572268505348,38.07066242241126 136.88634415791603,38.04677891304891 136.9503391899052,37.97512834297231 136.95948133739876,37.951244805597526 136.94119704252807,37.963186575136206 136.9046284527867,38.01095363587956 136.89548630535137,38.034837155726564 137.11489784362493,38.10648767327075 137.1971771704848,38.10648767327075 137.22460361279082,38.10648767327075 137.05090281163575,38.118429420050234 136.9229127476574,38.19007986404176 136.77663838880835,38.17813812773238 137.03261851676507,37.97512834297231 137.11489784362493,37.963186575136206 137.70913742645644,37.25861917408474 137.6817109841504,37.2227935501287 137.5628630676074,37.34221223541681 137.43487300362904,37.47357258685952 137.44401515100617,37.461630745492585 137.3160250870278,37.40192151231895 136.45666322880425,37.93930303426896 138.18452909268672,37.0436651938071 139.9855321359355,36.11219138780871 140.15923293709056,36.04053911515075 140.26893870619824,35.96888677942479 140.3237915908103,35.94500265354145 140.41521306504728,35.84946607981692 140.47006594960112,35.801697750874155 140.52491883415496,35.75392939396261 140.57062957133166,35.70616100899497 140.68033534043934,35.63450837897835 140.7351882250514,35.586739923972345 140.79004110960523,35.538971440910245 140.8723204364651,35.431492251540476 140.96374191070208,35.34789722839196 141.00945264782058,35.30012860518764 141.0551633849973,35.2523599539345 141.10087412211578,35.21653344713559 141.13744271185715,35.18070692456968 141.22886418609414,35.09711164388136 141.27457492321264,35.04934287355718 141.311143512954,35.01351627738768 141.36599639756605,34.92992082505225 141.43913357699057,34.85826751185232 141.48484431410907,34.82244083166006 141.5396971986629,34.79855636937282 141.57626578834606,34.762729662856145 141.6311186729581,34.7269029405943 141.7408244420658,34.655249448725954 141.78653517918428,34.619422679148556 141.832245916361,34.54776909267821 141.859672358667,34.53582682212436 141.93280953803333,34.5 141.93280953803333,34.51194227581436 141.93280953803333,34.51194227581436 141.93280953803333,34.53582682212436 141.93280953803333,34.53582682212436 141.94195168546867,34.523884549846116 141.94195168546867,34.523884549846116 141.94195168546867,34.53582682212436 141.94195168546867,34.53582682212436 141.94195168546867,34.523884549846116 141.94195168546867,34.51194227581436 141.94195168546867,34.51194227581436 141.94195168546867,34.51194227581436 141.951093832904,34.5 141.94195168546867,34.51194227581436 141.93280953803333,34.523884549846116 141.94195168546867,34.523884549846116 141.94195168546867,34.523884549846116 141.94195168546867,34.51194227581436 141.94195168546867,34.5 141.93280953803333,34.5 141.93280953803333,34.51194227581436 141.9236673906562,34.51194227581436 141.9236673906562,34.51194227581436 141.93280953803333,34.523884549846116 141.93280953803333,34.53582682212436 141.93280953803333,34.53582682212436 141.94195168546867,34.523884549846116 141.94195168546867,34.523884549846116 141.94195168546867,34.523884549846116 141.94195168546867,34.523884549846116 141.94195168546867,34.51194227581436 141.951093832904,34.51194227581436 141.94195168546867,34.5" stroke="#4dd2ff" stroke-linecap="round" stroke-linejoin="round" stroke-width="0.5"><title>2022-03-04 10.9km</title></polyline><polyline fill="none" points="28.58843085198896,184.74457216763767 28.32507749920478,184.5 28.103306254692143,184.79892140649827 27.347897953150095,185.10689952189932 27.36868900732952,185.4963990533579 26.959798275318462,185.7862575731524 27.001380383677315,186.0579986981138 26.57169859748683,186.84604118904463 25.85094205290079,187.4982066696175 26.88356441006181,189.99811045732713 27.576599549065577,192.09034334152602 27.90925641579088,192.4526275410135 28.955739475699374,192.11751473031836 29.343839153531007,192.35299959829717 29.71807812861516,193.36738567445354 30.071526049490785,193.5575812064344 30.6883273232379,195.43233435328875 31.270476840029005,196.70025104046 31.5684819498274,196.75458974463254 31.949651276227087,196.44666978806345 55.88708497793414,230.83364170854475 62.23528685135534,241.0066293070049 61.63234628041391,237.49514687398187 69.17949894428602,262.92173164422275 69.08247402484994,263.5459538550749 81.70957425775123,261.9899099418835 84.14905794709921,265.5" stroke="#4dd2ff" stroke-linecap="round" stroke-linejoin="round" stroke-width="0.5"><title>2022-02-16 14.6km</title></polyline></svg>