<?xml version="1.0" encoding="utf-8" ?>
<svg baseProfile="full" height="300mm" version="1.1" viewBox="0,0,200,300" width="200mm" xmlns="http://www.w3.org/2000/svg" xmlns:ev="http://www.w3.org/2001/xml-events" xmlns:xlink="http://www.w3.org/1999/xlink"><defs /><rect fill="#222222" height="300" width="200" x="0" y="0" /><text fill="#FFFFFF" style="font-size:12px; font-family:Arial; font-weight:bold;" x="10" y="20">Over 10km Runs</text><text fill="#FFFFFF" style="font-size:4px; font-family:Arial" x="10" y="280">ATHLETE</text><text fill="#FFFFFF" style="font-size:9px; font-family:Arial" x="10" y="290">glennzhou</text><text fill="#FFFFFF" style="font-size:4px; font-family:Arial" x="120" y="280">STATISTICS</text><text fill="#FFFFFF" style="font-size:3px; font-family:Arial" x="120" y="285">Number: 1</text><text fill="#FFFFFF" style="font-size:3px; font-family:Arial" x="120" y="290">Weekly: 1.0</text><text fill="#FFFFFF" style="font-size:3px; font-family:Arial" x="141" y="285">Total: 10.9 km</text><text fill="#FFFFFF" style="font-size:3px; font-family:Arial" x="141" y="290">Avg: 10.9 km</text><text fill="#FFFFFF" style="font-size:3px; font-family:Arial" x="167" y="285">Min: 10.9 km</text><text fill="#FFFFFF" style="font-size:3px; font-family:Arial" x="167" y="290">Max: 10.9 km</text><polyline fill="none" points="125.07691039436031,230.90455669925723 124.93063603551127,230.9522783566208 124.83921456127428,230.9522783566208 124.78436167666223,230.97613918002753 124.67465590755455,231.0 124.41867577959783,230.92841752966342 124.41867577959783,230.76139164344931 124.40039148472715,230.61822646197106 124.40039148472715,230.52278293772542 124.40039148472715,230.40347845401266 124.3455386001151,230.18873016316502 124.3455386001151,230.09328638762236 124.3455386001151,229.97398158963188 124.32725430524442,229.878537688317 124.30897001049016,229.7592327331513 124.32725430524442,229.66378870613698 124.30897001049016,229.4251783942018 124.30897001049016,229.30587310732517 124.30897001049016,229.1865677331516 124.32725430524442,229.09112337093393 124.30897001049016,228.9956789528078 124.3455386001151,228.78092880788608 124.32725430524442,228.66162304958561 124.32725430524442,228.56617838007514 124.30897001049016,228.3514276694914 124.29068571561947,228.16053791147715 124.30897001049016,227.96964792996005 124.27240142074879,227.85034157802875 124.23583283100743,227.75489643361652 124.23583283100743,227.54014465444197 124.23583283100743,227.4446993284655 124.23583283100743,227.3253925924364 124.23583283100743,227.22994714071683 124.25411712587811,227.1106402475416 124.27240142074879,226.84816477526329 124.29068571561947,226.72885760272038 124.30897001049016,226.6095503428951 124.23583283100743,226.20390500637586 124.21754853625316,226.06073582310637 124.19926424138248,225.94142807438038 124.18097994639538,225.8459818125848 124.18097994639538,225.6550891212537 124.16269565164112,225.5357810757123 124.14441135677043,225.44033457640035 124.14441135677043,225.34488802123815 124.14441135677043,225.22557974865776 124.14441135677043,225.13013306773792 124.10784276714548,224.96310124172305 124.08955847215839,224.8676544072223 124.08955847215839,224.79606924457767 124.0712741772877,224.72448405060277 124.05298988253344,224.65289882510842 124.03470558766276,224.5574518090143 124.03470558766276,224.46200473693898 124.01642129279207,224.27111042528122 124.01642129279207,224.12793954482186 123.97985270305071,224.00863038179523 124.03470558766276,223.65070236875908 124.05298988253344,223.5313928564865 124.12612706189975,223.34049745521042 124.21754853625316,223.1734637957852 124.21754853625316,223.0302919515234 124.19926424138248,222.7439478857268 124.14441135677043,222.60077566425025 124.10784276714548,222.48146538375295 124.0712741772877,222.36215501585684 123.99813699792139,221.74173969533877 124.01642129279207,221.59856659376237 123.99813699792139,221.47925557974668 123.99813699792139,221.38380670570768 123.99813699792139,221.14518427607254 123.99813699792139,221.00201065069996 123.97985270305071,220.88269920017046 123.97985270305071,220.78724997684185 123.97985270305071,220.66793836910801 123.96156840818003,220.4054525248648 123.96156840818003,220.31000302213943 123.97985270305071,219.83275467045314 124.01642129279207,219.54640498881054 124.03470558766276,219.40322995946917 124.0712741772877,218.99756669343333 124.05298988253344,218.85439118203067 124.01642129279207,218.71121554495767 124.03470558766276,218.42486389352416 123.97985270305071,218.1385117391328 123.94328411342576,217.99533547338797 123.94328411342576,217.85215908184182 123.96156840818003,217.32717790384777 123.96156840818003,217.20786376400793 123.99813699792139,217.08854953681293 123.99813699792139,216.9692352223792 123.99813699792139,216.7067434231867 123.96156840818003,216.61129175501992 123.92499981843866,216.4681141480396 123.87014693394303,216.277210476459 123.85186263907235,216.20562154195795 123.83357834420167,216.11016958041 123.8152940494474,216.01471756305546 123.92499981843866,215.4658673783415 123.9067155236844,215.32268876538728 123.8884312286973,215.17951002677728 123.85186263907235,214.91701534595632 123.83357834420167,214.77383625107177 123.7970097544603,214.60679381473165 123.76044116483536,214.27270842847065 123.74215686996467,213.9863489811687 123.76044116483536,213.7238523791748 123.76044116483536,213.58067223640683 123.76044116483536,213.461355354666 123.74215686996467,213.3181749812793 123.74215686996467,213.2227213291917 123.77872545970604,213.03181385732023 123.74215686996467,212.98408695444232 123.76044116483536,212.98408695444232 123.77872545970604,212.9363600375509 123.76044116483536,212.8409061618877 123.77872545970604,212.79317920314497 123.74215686996467,212.482953630446 123.74215686996467,212.3636359453085 123.72387257509399,212.19659103934828 123.70558828022331,212.07727314464864 123.76044116483536,211.69545529466996 123.72387257509399,211.67159164937038 123.72387257509399,211.5761370331602 123.70558828022331,211.45681868428073 123.72387257509399,211.26590914450935 123.72387257509399,211.12272684302297 123.72387257509399,211.00340816219978 123.70558828022331,210.88408939428336 123.72387257509399,210.71704297231918 123.76044116483536,210.26363039277203 123.77872545970604,210.1204472109821 123.77872545970604,209.97726390336175 123.77872545970604,209.83408047004195 123.74215686996467,209.54771322602755 123.68730398535263,209.261345478968 123.65073539561126,209.09429739424377 123.46789244713727,208.76020071125822 123.46789244713727,208.6408803014201 123.46789244713727,208.49769569428463 123.48617674200796,208.40223921973666 123.48617674200796,208.2590544029954 123.5227453316329,208.0204127623001 123.5227453316329,207.9249560082535 123.5227453316329,207.6624496462755 123.54102962650359,207.59085692877125 123.50446103676222,207.4476713994227 123.44960815215018,207.3999428616953 123.43132385739591,207.01811405672925 123.44960815215018,206.68401311873458 123.43132385739591,206.4453691723902 123.41303956252523,206.34991149602865 123.33990238315891,206.087402597841 123.30333379341755,205.94421574790613 123.28504949854687,205.6817061964539 123.28504949854687,205.53851899015717 123.30333379341755,205.44306078279624 123.35818667791318,205.13282122273813 123.41303956252523,204.98963353435101 123.46789244713727,204.67939311148075 123.46789244713727,204.2975579342601 123.46789244713727,204.17823425790993 123.44960815215018,204.03504573104146 123.44960815215018,203.891857078459 123.39475526765455,203.58161456625385 123.35818667791318,203.48615521300235 123.32161808828823,203.39069580374053 123.32161808828823,203.1281821402663 123.32161808828823,203.00885760801611 123.30333379341755,202.88953298842534 123.30333379341755,202.77020828142122 123.26676520367619,202.50769361866696 123.26676520367619,202.36450362445612 123.2484809088055,202.22131350442942 123.26676520367619,202.10198830834997 123.28504949854687,201.8394725695107 123.30333379341755,201.7201470938744 123.32161808828823,201.5769564078946 123.32161808828823,201.38603529753163 123.30333379341755,201.26670949009713 123.28504949854687,201.17124878111645 123.26676520367619,201.05192281637574 123.26676520367619,200.93259676430898 123.2484809088055,200.69394439806638 123.26676520367619,200.57461808393418 123.2484809088055,200.47915696976997 123.2484809088055,200.28823457365797 123.23019661393482,199.97798520301876 123.23019661393482,199.81092760506726 123.23019661393482,199.66773524192104 123.2484809088055,199.5245427530608 123.26676520367619,199.30975378381845 123.26676520367619,199.21429192896176 123.30333379341755,199.11883001809474 123.30333379341755,198.97563704701315 123.33990238315891,198.71311627335672 123.37647097278386,198.42672949266853 123.39475526765455,198.18807345766982 123.33990238315891,198.04487966901797 123.26676520367619,197.87782008986687 123.23019661393482,197.75849171431037 123.19362802419346,197.5198347009573 123.19362802419346,197.40050606318982 123.21191231918056,197.25731158271083 123.17534372943919,197.01865383566474 123.12049084494356,196.70839824205905 123.01078507571947,196.77999573911075 123.01078507571947,196.77999573911075 122.99250078084879,196.77999573911075 122.99250078084879,196.77999573911075 122.97421648609452,196.77999573911075 123.01078507571947,196.80386156452005 122.91936360148247,196.75612991020898 122.79137353750411,196.73226407785842 122.57196199917234,196.73226407785842 122.48054052493535,196.73226407785842 122.29769757634494,196.73226407785842 121.96858026902191,196.54133729319437 121.93201167916413,196.44587381697784 121.96858026902191,196.39814205789298 122.00514885864686,196.42200793915254 122.00514885864686,196.44587381697784 122.00514885864686,196.44587381697784 122.02343315351754,196.44587381697784 121.98686456377618,196.44587381697784 121.98686456377618,196.44587381697784 121.98686456377618,196.46973969123792 122.00514885864686,196.46973969123792 122.00514885864686,196.46973969123792 122.00514885864686,196.46973969123792 122.00514885864686,196.46973969123792 122.06000174325891,196.42200793915254 122.07828603812959,196.25494669679028 122.06000174325891,196.13561713317176 121.78573732031509,195.8492258239712 121.31034565414302,195.77762791802525 120.99951264157426,195.77762791802525 120.90809116733726,195.77762791802525 120.79838539822958,195.77762791802525 120.65211103938054,195.7537619424984 120.5058366805315,195.72989596330444 120.2315722577041,195.7537619424984 119.9573078348767,195.6821639945265 119.84760206576902,195.6821639945265 119.51848475832958,195.72989596330444 119.33564180985559,195.72989596330444 119.18936745089013,195.77762791802525 119.0430930921575,195.80149389011785 118.64083860523533,195.82535985881987 118.49456424638629,195.87309178561554 118.38485847739503,195.8492258239712 118.23858411842957,195.87309178561554 117.94603540073149,195.87309178561554 117.81804533675313,195.89695774378197 117.67177097790409,195.94468964956468 117.54378091392573,195.94468964956468 117.26951649109833,195.96855559729738 117.12324213224929,195.99242154143576 116.97696777340025,195.99242154143576 116.84897770942189,195.99242154143576 116.5564289917238,195.99242154143576 116.31873315863777,196.01628748215444 116.09932162042242,195.94468964956468 115.8250571974786,195.94468964956468 115.5507927746512,195.94468964956468 115.42280271067284,195.96855559729738 115.2765283518238,196.06401935304166 115.09368540334981,196.06401935304166 114.92912674963009,196.0878852832102 114.85598957026377,196.0878852832102 114.41716649371665,196.0401534193079 114.34402931423392,196.0401534193079 113.79550046857912,196.0401534193079 113.75893187883776,196.0401534193079 113.5395203406224,196.11175120991538 113.22868732805364,196.15948305290658 113.06412867433392,196.18334896910528 112.93613861035556,196.18334896910528 112.82643284124788,196.18334896910528 112.60702130291611,196.15948305290658 112.5338841235498,196.18334896910528 112.40589405957144,196.15948305290658 112.05849245726131,196.15948305290658 111.91221809852868,196.18334896910528 111.76594373956323,196.20721488181152 111.61966938071419,196.23108079106896 111.36368925275747,196.25494669679028 111.21741489390843,196.25494669679028 111.08942483004648,196.25494669679028 110.83344470197335,196.3265443930868 110.59574886888731,196.3026784978283 110.3397687409306,196.25494669679028 110.10207290772814,196.23108079106896 109.7729556002887,196.15948305290658 109.57182835694402,196.13561713317176 109.49869117757771,196.15948305290658 109.37070111359935,196.15948305290658 109.242711049621,196.18334896910528 109.1330052803969,196.18334896910528 109.02329951128922,196.20721488181152 108.80388797295745,196.23108079106896 108.65761361410841,196.20721488181152 108.52962355013005,196.20721488181152 108.29192771704402,196.20721488181152 108.18222194793634,196.20721488181152 108.0359475890873,196.23108079106896 107.88967323023826,196.23108079106896 107.6702616920229,196.3026784978283 107.45085015369114,196.27881259901915 107.32286008971278,196.25494669679028 107.06687996175606,196.25494669679028 106.92060560290702,196.27881259901915 106.77433124405798,196.3265443930868 106.64634118007962,196.35041028485284 106.40864534687717,196.39814205789298 106.29893957776949,196.39814205789298 106.2075181035325,196.42200793915254 106.09781233442482,196.42200793915254 105.98810656520072,196.39814205789298 105.65898925787769,196.44587381697784 105.38472483505029,196.46973969123792 105.2933033608133,196.42200793915254 105.05560752761085,196.44587381697784 104.96418605337385,196.46973969123792 104.81791169452481,196.46973969123792 104.68992163054645,196.49360556209285 104.56193156656809,196.49360556209285 104.32423573336564,196.49360556209285 104.1962456695037,196.51747142935346 104.06825560540892,196.51747142935346 103.92198124655988,196.54133729319437 103.8122754774522,196.56520315348462 103.59286393912043,196.58906901029695 103.46487387525849,196.58906901029695 103.39173669577576,196.58906901029695 103.17232515744399,196.58906901029695 102.89806073473301,196.63680071353156 102.69693349127192,196.61293486364593 102.62379631190561,196.54133729319437 102.53237483766861,196.44587381697784 102.45923765818588,196.37427617312642 102.36781618394889,196.3265443930868 102.20325753022917,196.0878852832102 102.13012035074644,196.01628748215444 102.02041458175518,195.87309178561554 101.94727740227245,195.7537619424984 101.81928733817767,195.53896800451912 101.74615015881136,195.44350394129287 101.65472868457437,195.3480398220563 101.58159150509164,195.2525756470277 101.526738620596,195.20484353852225 101.28904278739356,194.894584492562 101.17933701828588,194.8229861673317 101.10619983891957,194.7752539330395 100.94164118519984,194.56045870571688 100.8867883005878,194.44112790150393 100.83193541597575,194.34566319533042 100.7953668263508,194.25019843319023 100.74051394173875,194.13086740186554 100.6125238777604,193.89220507723803 100.57595528801903,193.77287378389155 100.53938669839408,193.67740868635883 100.50281810865272,193.55807723567705 100.44796522415709,193.41487937960483 100.37482804467436,193.20008235969 100.35654374980368,193.0807505595876 100.31997516006231,192.98528505660943 100.28340657043736,192.84208669731743 100.26512227545027,192.72275463525148 100.26512227545027,192.60342248568486 100.22855368582532,192.3647579245153 100.19198509620037,192.24542551297054 100.17370080121327,192.12609301398334 100.17370080121327,192.0306269518769 100.15541650634259,191.91129429571447 100.13713221158832,191.8396946599969 100.10056362173054,191.62489556428045 100.10056362173054,191.5055626109679 100.10056362173054,191.43396279714943 100.10056362173054,191.36236295173876 100.0639950321056,191.2191631666792 100.00914214749355,190.93276321919984 99.9725735578686,190.78956305672182 99.95428926299792,190.67022949185048 99.91772067325655,190.57476257706003 99.89943637838587,190.3122282731929 99.89943637838587,190.1928943588573 99.89943637838587,190.07356035719567 99.88115208351519,189.97809309294098 99.88115208351519,189.83489209177787 99.84458349377383,189.59622347682307 99.84458349377383,189.45302214007825 99.84458349377383,189.33368759676523 99.82629919901956,189.21435296603886 99.80801490414888,189.09501824795734 99.80801490414888,188.8324815605447 99.7897306092782,188.68927955289837 99.77144631440751,188.56994445038436 99.75316201953683,188.45060926042788 99.71659342991188,188.1642044482287 99.71659342991188,188.04486896122398 99.6983091350412,187.901666261605 99.6983091350412,187.80619772523642 99.6800248400541,187.7107291329594 99.6800248400541,187.61526048481755 99.62517195555847,187.3765886197216 99.62517195555847,187.28111977578374 99.58860336581711,187.13791640507407 99.57031907106284,187.01858016672486 99.55203477619216,186.89924384100595 99.5154661864508,186.61283630269463 99.49718189158011,186.49349967992748 99.47889759670943,186.35029561718693 99.46061330183875,186.23095880218898 99.40576041734312,185.99228490993846 99.36919182760175,185.84908040692972 99.25948605849408,185.70587577800325 99.20463317399845,185.61040595555096 99.09492740477435,185.5149360770447 98.98522163555026,185.41946614276094 98.78409439220559,185.2523936231155 98.71095721283928,185.204658586008 98.60125144361518,185.15692353497434 98.4915456745075,185.10918846994173 98.38183990539983,185.06145339089562 98.08929118770175,184.98985074619122 97.88816394424066,184.96598319099576 97.74188958550803,184.91824806996738 97.61389952141326,184.91824806996738 97.48590945755132,184.89438050427998 97.37620368832722,184.89438050427998 97.1202235603705,184.91824806996738 96.99223349639215,184.94211563223507 96.88252772728447,184.91824806996738 96.73625336843543,184.96598319099576 96.60826330434065,184.96598319099576 96.35228317638393,184.98985074619122 96.20600881765131,184.98985074619122 96.09630304842722,185.01371829790878 95.96831298444886,185.01371829790878 95.69404856162146,185.01371829790878 95.58434279251378,185.01371829790878 95.4746370234061,185.01371829790878 95.32836266455706,185.01371829790878 95.18208830570802,185.01371829790878 94.9261081777513,184.98985074619122 94.79811811377294,185.01371829790878 94.6518437549239,185.01371829790878 94.54213798581623,185.03758584610478 94.43243221659213,185.01371829790878 94.15816779376473,185.01371829790878 93.84733478131238,184.96598319099576 93.71934471733402,184.96598319099576 93.62792324309703,184.96598319099576 93.48164888413157,184.91824806996738 93.15253157669213,184.82277778617572 93.02454151271377,184.79891020650393 92.84169856423978,184.79891020650393 92.65885561564937,184.67957225551072 92.69542420539074,184.70343985265936 92.69542420539074,184.75117503653746 92.7319927951321,184.75117503653746 92.75027708988637,184.77504262326693 92.78684567962773,184.77504262326693 92.78684567962773,184.79891020650393 92.78684567962773,184.82277778617572 92.78684567962773,184.82277778617572 92.78684567962773,184.82277778617572 92.78684567962773,184.82277778617572 92.78684567962773,184.89438050427998 92.7319927951321,184.89438050427998 92.75027708988637,184.94211563223507 92.75027708988637,184.94211563223507 92.75027708988637,184.94211563223507 92.75027708988637,184.94211563223507 92.75027708988637,184.94211563223507 92.75027708988637,184.94211563223507 92.75027708988637,184.94211563223507 92.75027708988637,184.94211563223507 92.78684567962773,184.98985074619122 92.80512997449841,184.96598319099576 92.80512997449841,184.94211563223507 92.78684567962773,184.89438050427998 92.76856138475705,184.84664536235505 92.76856138475705,184.87051293502736 92.75027708988637,184.84664536235505 92.75027708988637,184.87051293502736 92.7319927951321,184.87051293502736 92.7319927951321,184.84664536235505 92.75027708988637,184.89438050427998 92.75027708988637,184.87051293502736 92.75027708988637,184.84664536235505 92.75027708988637,184.84664536235505 92.76856138475705,184.84664536235505 92.76856138475705,184.82277778617572 92.76856138475705,184.82277778617572 92.76856138475705,184.82277778617572 92.78684567962773,184.91824806996738 92.78684567962773,184.91824806996738 92.8234142693691,184.96598319099576 92.84169856423978,184.98985074619122 92.78684567962773,185.03758584610478 92.84169856423978,184.98985074619122 92.89655144885182,185.01371829790878 92.91483574360609,184.98985074619122 92.93312003847677,184.98985074619122 92.93312003847677,184.96598319099576 92.91483574360609,184.91824806996738 92.87826715398114,184.89438050427998 92.85998285899404,184.87051293502736 92.84169856423978,184.84664536235505 92.8234142693691,184.82277778617572 92.75027708988637,184.75117503653746 92.75027708988637,184.75117503653746 92.75027708988637,184.70343985265936 92.75027708988637,184.70343985265936 92.7319927951321,184.77504262326693 92.7319927951321,184.75117503653746 92.69542420539074,184.72730744637374 92.69542420539074,184.72730744637374 92.69542420539074,184.72730744637374 92.69542420539074,184.75117503653746 92.69542420539074,184.75117503653746 92.69542420539074,184.75117503653746 92.713708500145,184.77504262326693 92.67713991052005,184.77504262326693 92.69542420539074,184.77504262326693 92.713708500145,184.77504262326693 92.7319927951321,184.91824806996738 92.75027708988637,184.89438050427998 92.75027708988637,184.94211563223507 92.76856138475705,184.87051293502736 92.76856138475705,184.89438050427998 92.8234142693691,184.94211563223507 92.85998285899404,184.96598319099576 92.84169856423978,184.96598319099576 92.8234142693691,184.89438050427998 92.87826715398114,184.87051293502736 92.85998285899404,184.87051293502736 92.84169856423978,184.87051293502736 92.85998285899404,184.94211563223507 92.85998285899404,184.94211563223507 92.85998285899404,184.89438050427998 92.8234142693691,184.91824806996738 92.78684567962773,184.91824806996738 92.76856138475705,184.91824806996738 92.76856138475705,184.91824806996738 92.7319927951321,184.91824806996738 92.75027708988637,184.2022195780155 92.67713991052005,184.10674887475034 92.56743414141238,184.01127811560582 92.49429696192965,183.91580730042187 92.40287548769265,183.84420415248314 92.25660112884361,183.62939451957936 92.07375818025321,183.3907168177393 91.98233670601621,183.2236422184651 91.90919952653348,183.10430311415985 91.85434664203785,183.00883176770003 91.7080722830724,182.7940210339293 91.6166508088354,182.6746816149971 91.56179792433977,182.6030779217108 91.50694503972773,182.53147419699235 91.43380786036141,182.38826665311353 91.250964911771,182.1257191626064 91.15954343753401,181.98251126220566 91.08640625805128,181.83930323595996 91.01326907868497,181.71996311795374 90.95841619407292,181.62449096070486 90.81214183522388,181.36194223978964 90.7938575403532,181.21873366831278 90.68415177124552,180.9800524362072 90.62929888663348,180.86071168909257 90.57444600213785,180.7175026771729 90.53787741239648,180.59816173774016 90.48302452790085,180.33561136358185 90.46474023303017,180.21627014459227 90.44645593815949,180.0730605663848 90.44645593815949,179.9298508623615 90.40988734841812,179.66729941152153 90.44645593815949,179.38087916462973 90.44645593815949,179.23766885239456 90.46474023303017,179.11832682948443 90.44645593815949,178.9512478504621 90.48302452790085,178.71256329769676 90.5195931175258,178.56935239818995 90.50130882265512,178.1397189447598 90.50130882265512,177.9965075419459 90.50130882265512,177.90103320342314 90.50130882265512,177.78169020169298 90.5195931175258,177.6862157373689 90.5195931175258,177.47139798817807 90.5195931175258,177.3520546718355 90.5195931175258,177.2088425769325 90.48302452790085,177.06563035609724 90.50130882265512,176.77920553690637 90.53787741239648,176.6598617136915 90.55616170726717,176.5166490104748 90.57444600213785,176.39730499504367 90.55616170726717,176.11087900129496 90.5195931175258,175.96766581571137 90.55616170726717,175.58576337207342 90.57444600213785,175.46641867494327 90.55616170726717,175.32320492297004 90.53787741239648,175.20386003356543 90.53787741239648,174.94130096919253 90.5195931175258,174.79808675585082 90.5195931175258,174.702610543638 90.53787741239648,174.58326519971888 90.50130882265512,174.46391976845916 90.50130882265512,174.12975209587603 90.50130882265512,173.96266800268495 90.46474023303017,173.81945292935416 90.46474023303017,173.72397614382498 90.48302452790085,173.43754545174306 90.46474023303017,173.3420684425073 90.48302452790085,173.22272210230585 90.50130882265512,173.1033756746765 90.48302452790085,172.96015984614496 90.50130882265512,172.6975971670181 90.48302452790085,172.60211972428078 90.50130882265512,172.5066422255768 90.50130882265512,172.38729527356918 90.5195931175258,172.26794823419186 90.53787741239648,172.00538443983532 90.55616170726717,171.8621676463954 90.55616170726717,171.7189507271105 90.53787741239648,171.31316877243808 90.53787741239648,171.1699513707863 90.53787741239648,171.0506034398568 90.59273029689211,170.93125542149937 90.57444600213785,170.66868947356124 90.55616170726717,170.54934117555968 90.53787741239648,170.40612310262804 90.50130882265512,170.2867746122938 90.50130882265512,170.02420762598922 90.48302452790085,169.66616105377034 90.5195931175258,169.47520256035205 90.50130882265512,169.33198354337947 90.50130882265512,168.97393545036903 90.53787741239648,168.80684607109288 90.5195931175258,168.49653676929302 90.53787741239648,168.3533168922295 90.57444600213785,168.09074679075275 90.59273029689211,167.94752655709453 90.64758318162058,167.80430619759136 90.7024360661162,167.56560531861032 90.73900465585757,167.44625474809436 90.75728895061184,167.3030339479883 90.77557324548252,167.13594285550062 90.8852790145902,166.87337079255667 90.95841619407292,166.75401971500833 91.03155337343924,166.63466855003207 91.15954343753401,166.41983623283159 91.250964911771,166.34822539745073 91.34238638612442,166.22887393529527 91.43380786036141,166.13339270268625 91.6349351038225,165.89468937623315 91.74464087293018,165.7753375819011 91.85434664203785,165.65598570017028 91.94576811627485,165.60824492300162 92.14689535973594,165.41728167441033 92.25660112884361,165.345670398543 92.36630689795129,165.25018864836602 92.47601266705897,165.17857729901152 92.7319927951321,165.03535450599156 92.85998285899404,164.98761354698217 93.0062572179595,164.96374306228245 93.11596298695076,164.91600208224554 93.35365882015321,164.84439058607677 93.48164888413157,164.79664957120258 93.73762901208829,164.77277905844676 94.01189343491569,164.72503802251595 94.10331490915269,164.6772969726153 94.26787356287241,164.65342644245538 94.41414792172145,164.58181483081717 94.68841234454885,164.4863326331688 94.81640240864363,164.43859151325887 94.96267676749267,164.3908503795683 95.10895112622529,164.34310923170415 95.38321554916911,164.27149748371448 95.51120561303105,164.2237563009694 95.63919567712583,164.19988570433634 95.78547003585845,164.17601510421082 96.00488157419022,164.15214450053463 96.26086170214694,164.2237563009694 96.44370465062093,164.15214450053463 96.55341041984502,164.1282738934533 96.68140048382338,164.05666205113812 96.90081202215515,163.91343827208038 96.99223349639215,163.81795568266534 97.08365497062914,163.72247303737095 97.17507644498255,163.65086101672205 97.32135080383159,163.4360247659206 97.41277227806859,163.3405418968032 97.48590945755132,163.24505897179188 97.57733093178831,163.1018344793847 97.70532099576667,162.81538511691906 97.76017388037872,162.6960310672148 97.83331105974503,162.4095809914288 97.86987964948639,162.29022664457443 97.90644823922776,162.02764677374216 97.90644823922776,161.860550272002 97.90644823922776,161.7411955229618 97.90644823922776,161.59796970883326 97.86987964948639,161.31151770273573 97.83331105974503,161.1921625516552 97.83331105974503,161.04893625486875 97.79674247000366,160.9057098322519 97.79674247000366,160.6192566092359 97.7784581752494,160.42828751422348 97.76017388037872,160.28506054606987 97.72360529063735,160.02247744413035 97.70532099576667,159.8792501192802 97.70532099576667,159.73602266858506 97.65046811115462,159.61666636347945 97.59561522665899,159.33021087448287 97.57733093178831,159.1869829412026 97.57733093178831,159.0676262338966 97.54076234204695,158.781169779817 97.54076234204695,158.63794136387878 97.54076234204695,158.49471282211016 97.50419375230558,158.23212683519523 97.48590945755132,158.0888979366864 97.46762516268063,157.9695404251106 97.46762516268063,157.8263112958084 97.43105657293927,157.56372423177527 97.43105657293927,157.42049474573287 97.43105657293927,157.27726513386006 97.41277227806859,157.15790702773666 97.3944879831979,156.89531888665806 97.37620368832722,156.7998321849591 97.33963509858586,156.68047372912406 97.30306650896091,156.5372434667952 97.24821362434886,156.39401307850494 97.21164503472392,156.13142370639252 97.30306650896091,155.7972184388782 97.24821362434886,155.65398740017554 97.24821362434886,155.5823718335596 97.21164503472392,155.46301248596865 97.15679215011187,155.31978115341917 97.1202235603705,155.08106198614405 97.10193926549982,154.91395836092124 97.08365497062914,154.79459852365835 97.10193926549982,154.5320065740816 97.10193926549982,154.38877442317607 97.08365497062914,154.22167008803808 97.04708638100419,153.9352051147871 97.0288020860171,153.79197243927047 97.0288020860171,153.64873963783612 97.01051779126283,153.5055067105277 97.01051779126283,153.2190404782159 97.01051779126283,153.07580717318342 97.01051779126283,152.93257374226232 96.97394920152146,152.81321245366416 96.95566490665078,152.59836191374052 96.91909631690942,152.5028726940218 96.91909631690942,152.40738341826363 96.90081202215515,152.28802174494194 96.90081202215515,152.19253234329517 96.88252772728447,152.07317051252176 96.8642434325302,151.83444658883673 96.8459591375431,151.71508449572138 96.82767484267242,151.59572231526545 96.82767484267242,151.4524875832285 96.80939054780174,151.3569976919971 96.80939054780174,151.09440020240436 96.80939054780174,150.92729248869 96.79110625293106,150.78405716904672 96.79110625293106,150.64082172354392 96.79110625293106,150.40209570122533 96.79110625293106,150.33047782631184 96.77282195806038,150.1872419820429 96.73625336843543,150.11562401270203 96.77282195806038,149.99626066054043 96.73625336843543,149.68591553562146 96.73625336843543,149.56655186868738 96.75453766330611,149.39944258795003 96.73625336843543,149.30395149350807 96.71796907356475,148.99360504998185 96.69968477881048,148.8503680305439 96.71796907356475,148.7310037514253 96.71796907356475,148.63551226526033 96.73625336843543,148.61163938492246 96.69968477881048,148.56389361384208 96.66311618906911,148.3967833048955 96.64483189408202,148.2535457607446 96.55341041984502,147.99094326946943 96.53512612509076,147.8477053685201 96.51684183010366,147.72834035493725 96.49855753534939,147.4418639655196 96.49855753534939,147.29862558188324 96.48027324047871,147.15538707232918 96.46198894560803,147.0360215514811 96.46198894560803,146.77341709790926 96.44370465062093,146.63017812669568 96.44370465062093,146.48693902954983 96.37056747137103,146.2243336909305 96.37056747137103,146.08109423701535 96.35228317638393,145.96172792918514 96.37056747137103,145.84236153392703 96.33399888162967,145.7229950511537 96.27914599701762,145.48426182336698 96.26086170214694,145.34102171874838 96.26086170214694,145.05454113181622 96.26086170214694,144.93517407187028 96.24257740727626,144.6725662322424 96.24257740727626,144.52932541412883 96.20600881765131,144.36221096708323 96.22429311252199,144.29059043730376 96.20600881765131,144.17122281769116 96.18772452278063,143.93248731618223 96.18772452278063,143.66987786041864 96.15115593303926,143.5266361607064 96.13287163816858,143.35952068521874 96.09630304842722,143.21627871264354 96.05973445880227,142.95366810257838 96.05973445880227,142.78655203933886 96.04145016393159,142.66718331786979 96.0231658690609,142.52394073661708 95.96831298444886,142.23745519631484 95.95002868957818,142.11808607252897 95.91346009983681,141.99871686130064 95.89517580508254,141.85547369231062 95.8403229204705,141.61673479751335 95.80375433084555,141.4734912927088 95.76718574110419,141.35412160925625 95.73061715136282,141.2347518382303 95.6574799718801,140.9721380342089 95.60262708738446,140.87664200058498 95.54777420288883,140.73339784507698 95.51120561303105,140.61402761934733 95.4746370234061,140.4946573060879 95.36493125418201,140.30366462304664 95.2917940748157,140.1604199638532 95.2917940748157,140.1604199638532 95.2917940748157,140.2559164172999 95.23694119032007,140.18429408244265 95.21865689544939,139.92167858521861 95.20037260046229,139.63518846909574 95.16380401083734,139.5158174387907 95.12723542121239,139.27707511557674 95.12723542121239,139.1338295536989 95.12723542121239,138.99058386591787 95.10895112622529,138.84733805226278 95.09066683147103,138.58472039998742 95.05409824172966,138.44147422940296 95.03581394685898,138.29822793287167 95.0175296519883,138.0356093955197 94.98096106236335,137.7729904348671 94.9261081777513,137.6536180400144 94.88953958800994,137.53424555774836 94.83468670351431,137.2477512433834 94.83468670351431,137.10450389738253 94.83468670351431,136.98513101277058 94.81640240864363,136.88963264210906 94.81640240864363,136.79413421552454 94.83468670351431,136.57926255083294 94.81640240864363,136.43601461697835 94.79811811377294,136.26889186829794 94.7432652291609,136.12564366159495 94.70669663953595,135.86302162209176 94.70669663953595,135.7436478278687 94.6518437549239,135.67202350933803 94.7432652291609,135.57652436895296 94.72498093429022,135.60039915927337 94.63355946005322,135.57652436895296 94.45071651146282,135.62427394608676 94.30444215261377,135.67202350933803 94.13988349901047,135.7197730584594 93.86561907606665,135.7436478278687 93.71934471733402,135.76752259368368 93.60963894810993,135.7913973560062 93.49993317900226,135.7913973560062 93.44508029439021,135.81527211489447 93.22566875617485,135.86302162209176 93.0976786921965,135.86302162209176 92.80512997449841,135.91077111531922 92.43944407743402,135.76752259368368 92.36630689795129,135.6958982856595 92.2748854237143,135.57652436895296 92.22003253910225,135.48102517258667 92.14689535973594,135.4332755534124 91.89091523177922,135.21840209397487 91.81777805229649,135.07515296355996 91.74464087293018,134.95577859201876 91.68978798831813,134.88415392710885 91.6166508088354,134.7647794156219 91.43380786036141,134.57378001524194 91.36067068087868,134.45440527636674 91.26924920664169,134.35890542223933 91.19611202715896,134.2634055121016 91.01326907868497,134.04853050965175 90.92184760433156,133.95303041762963 90.86699471983593,133.85753026964085 90.7938575403532,133.7620300656563 90.72072036087047,133.66652980567596 90.55616170726717,133.42777891077276 90.48302452790085,133.30840333213564 90.39160305366386,133.21290280621906 90.31846587418113,133.11740222439403 90.1539072204614,132.92640089261113 90.06248574622441,132.83090014281333 89.971064271871,132.73539933699067 89.7882213232806,132.52052231923153 89.75165273365565,132.44889658369357 89.71508414391428,132.35339555393148 89.64194696454797,132.25789446826093 89.56880978506524,132.16239332652185 89.40425113146193,131.97139087512915 89.34939824673347,131.87588956546097 89.29454536223784,131.7326374960394 89.23969247774221,131.61326067529444 89.12998670851812,131.3983821773727 89.09341811877675,131.27900511177722 89.03856523428112,131.0402507178951 89.00199664453976,130.9447488624137 89.00199664453976,130.80149597418495 88.98371234966908,130.6821184710425 88.9654280547984,130.53886535187485 88.92885946517345,130.27623430620588 88.89229087531567,130.15685641828168 88.8740065805614,130.03747844278405 88.85572228569072,129.87034913015668 88.89229087531567,129.65546833343979 88.8740065805614,129.39283586364763 88.85572228569072,129.2973330423265 88.8740065805614,129.22570588969393 88.85572228569072,129.1063272318279 88.83743799082004,128.98694848656305 88.83743799082004,128.89144542739086 88.80086940107867,128.65268753439886 88.76430081145372,128.53330845671007 88.7825851063244,128.39005344794714 88.7825851063244,128.2467983133247 88.74601651658304,128.03191537498788 88.74601651658304,127.86478400486521 88.74601651658304,127.74540434980008 88.74601651658304,127.62602460721973 88.72773222171236,127.53052075016603 88.691163631971,127.26788485460565 88.67287933710031,127.12462873315962 88.67287933710031,127.0052485356864 88.67287933710031,126.88586825066886 88.67287933710031,126.76648787823797 88.63631074747536,126.19346087268787 88.61802645260468,126.02632761640416 88.61802645260468,125.90694661407906 88.599742157734,125.763689295738 88.58145786286332,125.47717428128817 88.58145786286332,125.33391658501932 88.56317356810905,125.1906587628473 88.56317356810905,125.0712771480612 88.54488927312195,124.80863728762779 88.508320683497,124.71313177891716 88.508320683497,124.56987341077183 88.47175209375564,124.47436776208633 88.47175209375564,124.35498562229623 88.43518350401428,124.14009755048028 88.45346779888496,124.02071516586875 88.45346779888496,123.87745618875488 88.41689920926001,123.75807361166517 88.39861491438933,123.61481440362695 88.38033061940223,123.3760487769614 88.36204632464796,123.23278923297767 88.34376202977728,123.0895295629598 88.30719344015233,122.97014640842099 88.30719344015233,122.70750316049089 88.28890914516523,122.58811972591502 88.28890914516523,122.51648962315812 88.3254777349066,122.49261291527364 88.28890914516523,122.30159912604722 88.25234055554029,122.20609214749129 88.2157719656825,122.06283157462894 88.19748767092824,121.91957087573246 88.17920337605756,121.80018686372205 88.10606619669124,121.53754172939807 88.08778190182056,121.41815743743791 88.08778190182056,121.27489617162792 88.08778190182056,121.15551168713137 88.03292901720852,120.91674245572358 88.03292901720852,120.7973577088851 88.01464472233783,120.70184984826483 88.01464472233783,120.60634193177975 87.99636042746715,120.5108339592116 87.95979183772579,120.39144891483011 87.92322324810084,120.12880150912679 87.88665465835948,120.0094161847228 87.8683703634888,119.81839948365814 87.8683703634888,119.69901393177861 87.90493895323016,119.57962829241296 87.92322324810084,119.2931024008576 87.94150754297152,119.1259620647179 87.99636042746715,118.95882155708387 87.95979183772579,118.93494432774605 87.95979183772579,118.91106709484302 87.90493895323016,118.8155581283063 87.92322324810084,118.79168087798462 87.95979183772579,118.8155581283063 87.95979183772579,118.8155581283063 87.95979183772579,118.8155581283063 87.92322324810084,118.8155581283063 87.94150754297152,118.72004910587566 87.95979183772579,118.60066274899873 87.95979183772579,118.38576708613255 87.94150754297152,118.2425031533785 87.92322324810084,118.14699379485683 87.88665465835948,117.9559749099135 87.85008606861811,117.88434277022316 87.81351747887675,117.6694461623556 87.81351747887675,117.47842671738181 87.83180177386384,117.38291691079212 87.85008606861811,117.33516198661528 87.8683703634888,117.26352957400377 87.8683703634888,117.19189712984371 87.85008606861811,116.97699960843602 87.74038029951043,116.71434669735027 87.6855274150148,116.16516196905286 87.70381170976907,116.02189608325716 87.72209600463975,115.87863007142732 87.7769488892518,115.71148623184126 87.72209600463975,115.44883128008223 87.64895882515702,115.32944252558809 87.5941059406614,115.23393145909358 87.53925305616576,115.04290915794263 87.52096876129508,114.66086388369149 87.5026844664244,114.49371879444516 87.48440017155372,114.35045143854222 87.48440017155372,114.2071839566197 87.52096876129508,113.94452657923102 87.5026844664244,113.80125874033547 87.5026844664244,113.68186877830885 87.48440017155372,113.53860070837254 87.48440017155372,113.44308859170997 87.4112629921874,112.89389283421042 87.3929786972003,112.77450220705941 87.37469440244604,112.63123333906697 87.35641010757536,112.48796434502583 87.33812581270467,112.2014259789139 87.31984151795041,112.05815660681401 87.31984151795041,111.93876536715834 87.31984151795041,111.79549576409045 87.30155722296331,111.60446943056013 87.28327292809263,111.48507785833499 87.28327292809263,111.36568619856553 87.26498863322195,111.24629445133905 87.19185145385563,110.88811868452467 87.15528286423068,110.76872658725188 87.11871427448932,110.6732128464646 87.13699856924359,110.24340031950851 87.11871427448932,110.12400774964772 87.11871427448932,110.00461509228626 87.10042997950222,109.8613437878812 87.10042997950222,109.7419509379688 87.10042997950222,109.45540774107212 87.10042997950222,109.47928636010329 87.10042997950222,109.50316497565655 87.10042997950222,109.52704358760093 87.10042997950222,109.52704358760093 87.10042997950222,109.52704358760093 87.10042997950222,109.50316497565655 87.08214568474796,109.43152911862126 87.02729280013591,109.2882573101233 87.00900850526523,109.16886404015531 86.8627341465326,108.95395593369904 86.78959696704987,108.85844112864288 86.75302837730851,108.64353261253564 86.66160690307152,108.42862381281157 86.60675401845947,108.16595711711852 86.55190113384742,107.92716884425317 86.53361683909316,107.78389571249136 86.51533254422247,107.66450133982289 86.47876395448111,107.54510687956645 86.4056267751148,107.33019663060259 86.36905818537343,107.23468087335641 86.33248959563207,107.16304401870002 86.2959210058907,107.04364919087675 86.24106812139507,106.82873828025186 86.22278382652439,106.70934320738888 86.1313623522874,106.44667373893026 86.09479376254603,106.30339930494665 86.05822517280467,106.16012474485615 86.0216565830633,106.04072918187012 85.93023510882631,105.77805863517278 85.87538222433068,105.63478361297166 85.83881363458931,105.51538766488375 85.80224504484795,105.39599162929517 85.72910786536522,105.13332004284894 85.67425498086959,105.01392372710689 85.63768639112823,104.89452732390782 85.5645492116455,104.79901013833296 85.52798062202055,104.53633758911747 85.52798062202055,104.39306147462048 85.52798062202055,104.27366461631027 85.4914120323956,104.13038827071432 85.43655914778356,103.8677146431728 85.41827485291287,103.72443794056016 85.38170626317151,103.60504059203959 85.34513767343014,103.48564315600379 85.27200049406383,103.24684802140109 85.23543190432247,103.1513298695063 85.18057901971042,103.00805253665021 85.14401043008547,102.88865466298012 85.12572613521479,102.74537709905417 85.08915754547343,102.4588215930853 85.07087325071916,102.33942331674916 84.99773607123643,102.14838589265128 84.97945177648216,102.02898738881049 84.90631459699944,101.76631037217157 84.9245988917537,101.38423395541031 84.9245988917537,101.26483489134989 84.96116748149507,100.8349975359306 84.81489312264603,100.59619851502066 84.74175594327971,100.47679887326376 84.70518735353835,100.35739914396254 84.6503344689263,100.21411935325887 84.54062869981863,99.97531942195201 84.48577581520658,99.83203929514275 84.4674915203359,99.71263909318077 84.41263863572385,99.59323880367447 84.33950145647395,99.33055785855686 84.30293286673259,99.2589175273024 84.28464857186191,99.13951690516842 84.1932270975085,98.61415312781173 84.04695273877587,98.08878765575355 83.95553126442246,97.84998460824136 83.93724696955178,97.7067026116274 83.90067837981042,97.5873008515191 83.82754120056052,97.34849706869863 83.6629825468408,96.99029073787096 83.6446982518537,96.87088845255494 83.6446982518537,96.75148607968003 83.48013959813397,96.24999515757372 83.44357100850902,96.13059232947126 83.35214953427203,95.65298014170548 83.3704338290263,95.55745753606607 83.42528671363834,95.36641215666896 83.38871812389698,95.29477008167305 83.33386523940135,95.03208220357192 83.29729664965998,94.93655923374172 83.2790123547893,94.81715544272447 83.22415947017726,94.72163234681648 83.24244376516435,94.69775156411924 83.22415947017726,94.64998998814553 83.05960081657395,94.36342023835459 82.80362068850081,93.71863645750273 82.78533639363013,93.57535082618415 82.74876780388877,93.43206506880233 82.67563062452246,93.1932551930804 82.67563062452246,93.09773114476411 82.60249344515614,92.83503972280596 82.58420915028546,92.69175331408042 82.5476405605441,92.59622897162626 82.5476405605441,92.47682346470538 82.4562190863071,92.21413104122621 82.40136620169505,92.09472525415185 82.3647976120701,91.97531937957683 82.32822902221233,91.83203221445729 82.25509184296243,91.5932199923991 82.20023895835038,91.49769500555703 82.14538607373834,91.40216996260278 82.0905331892427,91.30664486374008 82.01739600975998,91.18723841129395 81.92597453552298,90.94842524369597 81.87112165091094,90.82901852860232 81.79798447154462,90.7096117259789 81.7248472920619,90.61408622079762 81.61514152295422,90.35139079268265 81.56028863834217,90.23198363983829 81.52372004871722,90.08869494083046 81.46886716410518,89.99316907144384 81.34087710012682,89.7782356605021 81.24945562577341,89.65882808739843 81.21288703614846,89.53942042667768 81.13974985666573,89.42001267855812 81.03004408755805,89.20507851107686 80.97519120294601,89.08567051772843 80.7009267801186,88.67968268544064 80.60950530588161,88.39310242969077 80.59122101101093,88.2259303809551 80.55465242138598,88.10652166967338 80.49979953665752,87.96323110052617 80.46323094703257,87.77217681218463 80.40837806242052,87.65276776818791 80.3535251779249,87.53335863663233 80.29867229331285,87.3900675632176 80.17068222933449,87.03183932795946 80.0792607550975,86.93631166544219 80.02440787048545,86.88854781317059 79.98783928074408,86.7691381212644 79.89641780650709,86.57808243209729 79.85984921688214,86.48255450333818 79.8049963322701,86.36314451372891 79.73185915278737,86.26761645900842 79.67700626817532,86.05267813090177 79.62215338367969,85.93326782605436 79.58558479393832,85.81385743366263 79.5307319094427,85.69444695366838 79.47587902483065,85.5750363862171 79.34788896085229,85.33621498852153 79.31132037111092,85.21680415823357 79.25646748649888,85.12127543106908 79.20161460200325,85.00186444325664 79.1467617173912,84.88245336789987 79.03705594828352,84.6675132115779 78.98220306378789,84.54810189106502 78.94563447404653,84.42869048287685 78.92735017917585,84.35704359604279 78.8724972945638,84.28539667758741 78.7810758203268,84.04657338856487 78.76279152557254,83.95104397485557 78.68965434608981,83.78386736605898 78.68965434608981,83.78386736605898 78.68965434608981,83.80774974923406 78.68965434608981,83.80774974923406 78.68965434608981,83.80774974923406 78.68965434608981,83.80774974923406 78.68965434608981,83.80774974923406 78.65308575634845,83.83163212894578 78.56166428211145,83.5928081744496 78.50681139761582,83.49727849455667 78.39710562839173,83.28233650993207 78.3422527438961,83.16292417360819 78.26911556441337,83.0435117497982 78.19597838504706,82.75692157533194 78.08627261582296,82.49421347232419 78.01313543634024,82.39868314794148 77.9582825518446,82.25538755631715 77.88514537236188,82.1598570918868 77.79372389812488,81.89714802565868 77.75715530838352,81.77773467358202 77.70230242388789,81.5866731282149 77.72058671864215,81.61055583365669 77.72058671864215,81.61055583365669 77.70230242388789,81.5627904192661 77.61088094965089,81.37172862168518 77.55602806503884,81.25231488437566 77.5011751804268,81.15678383146587 77.46460659068543,81.08513550499629 77.39146941131912,81.01348714703636 77.28176364221144,80.79854188389436 77.20862646272872,80.67912772625277 77.17205787298735,80.60747918963898 77.1354892833624,80.51194775839394 77.08063639875036,80.36865050655615 76.97093062964268,80.12982147313596 76.93436204001773,80.0342897616938 76.87950915540569,79.9148750436143 76.84294056566432,79.81934320606524 76.80637197592296,79.69992833030119 76.69666620681528,79.4372152954893 76.64181332220323,79.31780013954267 76.60524473257829,79.17450183682377 76.55039184796624,79.05508648815157 76.47725466848351,79.00732032426458 76.4041174891172,78.7207230461645 76.34926460450515,78.60130736480642 76.29441172000952,78.50577475670434 76.23955883539747,78.41024209240277 76.20299024577253,78.33859255754214 76.11156877141912,78.17141018669645 76.07500018167775,78.07587732632237 76.0384315920528,77.98034440986521 75.98357870744076,77.88481143747049 75.96529441257007,77.78927840894903 75.89215723320376,77.71762860078888 75.78245146409608,77.40714573445439 75.72759857948404,77.26384575031989 75.67274569487199,77.12054564003483 75.63617710524704,76.97724540365743 75.52647133613937,76.71452797610254 75.489902746398,76.61899426105083 75.43504986190237,76.49957703831024 75.38019697717391,76.42792666261084 75.3070597978076,76.30850929988082 75.27049120818265,76.2129753465415 75.17906973382924,75.97414021806617 75.14250114408787,75.87860606853792 75.12421684921719,75.80695541971363 75.06936396472156,75.63977044961939 74.9230896057561,75.4009344803926 75.14250114408787,75.25763273070334 75.34362838743255,75.25763273070334 75.45333415665664,75.2337490934442 75.54475563089363,75.16209816082846 75.63617710524704,75.1382145096286 75.81902005372103,75.06656353489961 75.91044152795803,75.01879620098043 76.0384315920528,74.94714517371904 76.16642165591475,74.89937780468608 76.38583319424652,74.73219190281816 76.62352902744897,74.56500582932495 76.76980338629801,74.541122090508 76.89779345027637,74.49335460239672 77.02578351425473,74.49335460239672 77.37318511644844,74.32616828361643 77.5925966546638,74.18286558811087 77.6840181290172,74.1112141929625 77.93999825697392,74.01567895054177 78.19597838504706,73.92014365200885 78.30568415415473,73.8723759817367 78.43367421813309,73.7768405990937 78.56166428211145,73.72907288678107 78.81764441006817,73.60965354468499 78.92735017917585,73.53800189732283 79.1467617173912,73.39469850818568 79.27475178148597,73.37081459774345 79.40274184546433,73.37081459774345 79.5307319094427,73.32304676630883 79.64043767855037,73.27527892084618 80.37180947279558,73.27527892084618 80.5363681265153,73.41858241515001 80.55465242138598,73.53800189732283 80.5363681265153,73.51411800790811 80.51808383164462,73.41858241515001 80.46323094703257,73.34693068373599 80.48151524190325,73.34693068373599 80.48151524190325,73.34693068373599 80.49979953665752,73.27527892084618 80.48151524190325,73.25139499291254 80.48151524190325,73.25139499291254 80.48151524190325,73.25139499291254 80.48151524190325,73.25139499291254 80.48151524190325,73.22751106139913 80.5363681265153,73.20362712636415 80.84720113908406,73.08420739894791 80.99347549781669,73.03643948340323 81.30430851038545,73.15585924593324 81.43229857436381,73.41858241515001 81.46886716410518,73.53800189732283 81.52372004871722,73.63353742008621 81.59685722808354,73.7529567447491 81.7248472920619,74.01567895054177 81.76141588180326,74.15898179321084 81.9076902406523,74.30228450980212 81.98082742001861,74.49335460239672 82.05396459950134,74.58888956459123 82.20023895835038,74.87549411495274 82.32822902221233,75.18598180857953 82.47450338117778,75.42481809307355 82.56592485541478,75.71142117206182 82.60249344515614,75.85472252241743 82.69391491939314,76.09355782609782 82.80362068850081,76.14132484482252 82.80362068850081,76.06967431145313 83.11445370106958,76.14132484482252 83.77268831583206,76.09355782609782 83.90067837981042,75.95025668594462 83.91896267479751,75.90248961119505 83.88239408505615,75.92637315027241 83.80925690557342,76.02190727175912 83.79097261070274,76.06967431145313 84.22979568724986,76.2129753465415 84.39435434096958,76.2129753465415 84.44920722558163,76.2129753465415 84.1018056232715,76.23685884010047 83.84582549531478,76.38015972808353 83.5532767776167,76.35627625546476 84.06523703353014,75.95025668594462 84.22979568724986,75.92637315027241 85.41827485291287,74.51723834816949 85.36342196830083,74.4455871002574 85.12572613521479,74.68442447083362 84.86974600725807,74.94714517371904 84.88803030201234,74.92326149098517 84.63205017405562,74.8038430246379 82.91332645760849,75.87860606853792 86.36905818537343,74.0873303876142 89.971064271871,72.22438277561741 90.31846587418113,72.0810782303015 90.53787741239648,71.93777355884959 90.64758318162058,71.8900053070829 90.83042613009457,71.69893215963384 90.94013189920224,71.60339550174831 91.04983766830992,71.50785878792522 91.14125914266333,71.41232201798994 91.36067068087868,71.2690167579567 91.47037645010278,71.17347984794469 91.58008221921045,71.07794288182049 91.74464087293018,70.86298450308095 91.92748382140417,70.69579445678391 92.01890529564116,70.60025721037528 92.11032676999457,70.504719907869 92.20174824423157,70.43306689427118 92.2748854237143,70.36141384913935 92.45772837218828,70.19422328776272 92.54914984642528,70.09868574711436 92.62228702590801,70.02703255477536 92.7319927951321,69.8598416501045 92.87826715398114,69.71653502370464 92.96968862821814,69.64488166332012 93.07939439732581,69.59711273874564 93.15253157669213,69.52545932571229 93.26223734591622,69.4538058811886 93.48164888413157,69.31049889745191 93.57307035836857,69.23884535829711 93.66449183272198,69.09553818535642 93.71934471733402,69.07165364424873 93.86561907606665,69.0 93.86561907606665,69.02388455162873 93.86561907606665,69.02388455162873 93.86561907606665,69.07165364424873 93.86561907606665,69.07165364424873 93.88390337093733,69.04776909969223 93.88390337093733,69.04776909969223 93.88390337093733,69.07165364424873 93.88390337093733,69.07165364424873 93.88390337093733,69.04776909969223 93.88390337093733,69.02388455162873 93.88390337093733,69.02388455162873 93.88390337093733,69.02388455162873 93.90218766580801,69.0 93.88390337093733,69.02388455162873 93.86561907606665,69.04776909969223 93.88390337093733,69.04776909969223 93.88390337093733,69.04776909969223 93.88390337093733,69.02388455162873 93.88390337093733,69.0 93.86561907606665,69.0 93.86561907606665,69.02388455162873 93.84733478131238,69.02388455162873 93.84733478131238,69.02388455162873 93.86561907606665,69.04776909969223 93.86561907606665,69.07165364424873 93.86561907606665,69.07165364424873 93.88390337093733,69.04776909969223 93.88390337093733,69.04776909969223 93.88390337093733,69.04776909969223 93.88390337093733,69.04776909969223 93.88390337093733,69.02388455162873 93.90218766580801,69.02388455162873 93.88390337093733,69.0" stroke="#4DD2FF" stroke-linecap="round" stroke-linejoin="round" stroke-width="0.5"><title>2022-03-04 10.9km</title></polyline></svg>