<?xml version="1.0" encoding="utf-8" ?>
<svg baseProfile="full" height="200mm" version="1.1" viewBox="0,0,200,200" width="200mm" xmlns="http://www.w3.org/2000/svg" xmlns:ev="http://www.w3.org/2001/xml-events" xmlns:xlink="http://www.w3.org/1999/xlink"><defs /><rect fill="#1a1a1a" height="200" width="200" x="0" y="0" /><text alignment-baseline="middle" fill="#e1ed5e" style="dominant-baseline: central; font-size:9.0px; font-family:Arial;" text-anchor="middle" x="100.0" y="100.0">2023</text><line stroke="#e1ed5e" stroke-width="0.3" x1="100.0" x2="100.0" y1="15.0" y2="10.0" /><path d="M 100.0 14.0 a86.0,86.0 0 0,1 42.46469731375804,11.215312516191453" fill="none" id="id25" stroke="none" /><text fill="#e1ed5e" style="font-size:6.75px; font-family:Arial;" text-anchor="middle"><textPath startOffset="22.20632615414155" xlink:href="#id25">January</textPath></text><line stroke="#e1ed5e" stroke-width="0.3" x1="143.23703022742887" x2="145.7803849466894" y1="26.81831364943548" y2="22.513508569990506" /><path d="M 143.74570117128098 25.957352633546492 a86.0,86.0 0 0,1 28.547481713284135,27.462654790039103" fill="none" id="id26" stroke="none" /><text fill="#e1ed5e" style="font-size:6.75px; font-family:Arial;" text-anchor="middle"><textPath startOffset="19.985693538727396" xlink:href="#id26">February</textPath></text><line stroke="#e1ed5e" stroke-width="0.3" x1="172.23445277983987" x2="176.4835382374775" y1="55.19839476539836" y2="52.563006222186495" /><path d="M 173.08426987136738 54.67131705675599 a86.0,86.0 0 0,1 12.851231095245387,41.99856678651699" fill="none" id="id27" stroke="none" /><text fill="#e1ed5e" style="font-size:6.75px; font-family:Arial;" text-anchor="middle"><textPath startOffset="22.20632615414155" xlink:href="#id27">March</textPath></text><path d="M 119.196687751892 91.48605970444005 l 18.201550755067743 -8.072586188728177 a40.911381108897295,40.911381108897295 0 0,0 0.2799688351673901,0.6462066719030825 l -18.337810300077813 7.758080372238492" fill="#ffcb12" stroke="none" /><line stroke="#e1ed5e" stroke-width="0.3" x1="184.98032266829074" x2="189.97916517819016" y1="98.17113171792111" y2="98.06355123074" /><path d="M 185.9800911702706 98.14961562048488 a86.0,86.0 0 0,1 -9.607161424134198,41.387399972396054" fill="none" id="id28" stroke="none" /><text fill="#e1ed5e" style="font-size:6.75px; font-family:Arial;" text-anchor="middle"><textPath startOffset="21.466115282336823" xlink:href="#id28">April</textPath></text><line stroke="#e1ed5e" stroke-width="0.3" x1="174.80103733775053" x2="179.2010983576182" y1="140.37084112569926" y2="142.7455964860345" /><path d="M 175.68104954172406 140.8457921977663 a86.0,86.0 0 0,1 -30.038265399797805,32.042727171017184" fill="none" id="id29" stroke="none" /><text fill="#e1ed5e" style="font-size:6.75px; font-family:Arial;" text-anchor="middle"><textPath startOffset="22.206326154141568" xlink:href="#id29">May</textPath></text><path d="M 116.71984013943494 112.70617746262583 l 6.033524375444972 4.585153374682528 a28.57806359556656,28.57806359556656 0 0,0 -0.30101299259275327,0.38909986988587725 l -5.95370456563415 -4.688331238681657" fill="#ff1402" stroke="none" /><path d="M 116.27256486870786 113.27417163493432 l 42.88829961864663 34.98567403858874 a76.34802283833801,76.34802283833801 0 0,0 -0.8394792320757787,1.011206814004975 l -42.2797243866773 -35.718742109707485" fill="#43ffdc" stroke="none" /><path d="M 115.07121518719521 114.62390073753431 l 6.85758447256625 6.654051009189308 a30.555252986251855,30.555252986251855 0 0,0 -0.3695139499837381,0.3743156804542368 l -6.742029897526977 -6.77110718362421" fill="#ff3304" stroke="none" /><path d="M 114.0293411484842 115.62618273729858 l 7.35539756709745 8.192600441636877 a32.010021587915794,32.010021587915794 0 0,0 -0.41316957785856134,0.36457411405709095 l -7.213285636332301 -8.317997697466257" fill="#ff4906" stroke="none" /><path d="M 112.63410532772338 116.77436683061366 l 37.90231598317012 50.32310049184099 a84.0,84.0 0 0,0 -1.1624601183257428,0.8599602050409239 l -37.03047089442582 -50.96807064562168" fill="#4dd2ff" stroke="none" /><path d="M 112.04921762599082 117.19931262002967 l 9.623717804877657 13.737101962205244 a37.77271339729927,37.77271339729927 0 0,0 -0.535730601642789,0.3684803928623458 l -9.385830318611983 -13.900723144432686" fill="#ff9e0e" stroke="none" /><line stroke="#e1ed5e" stroke-width="0.3" x1="143.8653032363475" x2="146.44561519142675" y1="172.8068346515853" y2="177.08958963109032" /><path d="M 144.38136562736335 173.6633856474863 a86.0,86.0 0 0,1 -40.68145358897372,12.25698825130547" fill="none" id="id30" stroke="none" /><text fill="#e1ed5e" style="font-size:6.75px; font-family:Arial;" text-anchor="middle"><textPath startOffset="21.466115282336833" xlink:href="#id30">June</textPath></text><path d="M 106.57524785965236 119.94407469862006 l 4.236151300929837 12.8491153160678 a34.52940287854485,34.52940287854485 0 0,0 -0.5660826846589729,0.18124179932581583 l -4.014347271179924 -12.920129962053322" fill="#ff6f0a" stroke="none" /><line stroke="#e1ed5e" stroke-width="0.3" x1="102.19456741930631" x2="102.32365962044197" y1="184.97166512339345" y2="189.96999836594603" /><path d="M 102.22038585953345 185.97133177190398 a86.0,86.0 0 0,1 -42.740103519485714,-10.115201625700543" fill="none" id="id31" stroke="none" /><text fill="#e1ed5e" style="font-size:6.75px; font-family:Arial;" text-anchor="middle"><textPath startOffset="22.20632615414155" xlink:href="#id31">July</textPath></text><path d="M 96.58105272829116 120.7198165907248 l -1.031172459799529 6.249205542668068 a27.333710330948385,27.333710330948385 0 0,0 -0.4635680498977296,-0.0805972475232087 l 1.1385894811693087 -6.2305297166238525" fill="#ff0000" stroke="none" /><line stroke="#e1ed5e" stroke-width="0.3" x1="58.666819895761336" x2="56.23545636021788" y1="174.27360380694188" y2="178.64263932499728" /><path d="M 58.180547188652646 175.14741091055294 a86.0,86.0 0 0,1 -31.652253787137756,-30.449443065178592" fill="none" id="id32" stroke="none" /><text fill="#e1ed5e" style="font-size:6.75px; font-family:Arial;" text-anchor="middle"><textPath startOffset="22.20632615414155" xlink:href="#id32">August</textPath></text><path d="M 88.24862548938628 117.40417183066458 l -18.345666692204894 27.170535257033432 a53.784164966263404,53.784164966263404 0 0,0 -0.7628211072146807,-0.5246753133164715 l 18.810644684042465 -26.85071915435186" fill="#8dff24" stroke="none" /><path d="M 87.36589467227662 116.77436683061367 l -10.187949193526988 13.526592710041259 a37.93407863195481,37.93407863195481 0 0,0 -0.5181998747893777,-0.39733356681224774 l 10.419277796809853 -13.349219801401643" fill="#ffa10e" stroke="none" /><path d="M 86.51685102203217 116.09983520530335 l -11.050316704754088 13.194861096889374 a38.210864552414904,38.210864552414904 0 0,0 -0.5006251432479675,-0.42664360790646155 l 11.275807324579112 -13.002693098759961" fill="#ffa50f" stroke="none" /><line stroke="#e1ed5e" stroke-width="0.3" x1="26.63291911575756" x2="22.317208475507996" y1="142.92168965132927" y2="145.44649492493687" /><path d="M 25.769776987707644 143.4266507060508 a86.0,86.0 0 0,1 -11.730757126820373,-40.83630448921669" fill="none" id="id33" stroke="none" /><text fill="#e1ed5e" style="font-size:6.75px; font-family:Arial;" text-anchor="middle"><textPath startOffset="21.46611528233685" xlink:href="#id33">September</textPath></text><path d="M 79.0235259727143 100.99374915477108 l -14.22526328652349 0.6739141835272483 a35.24121750053949,35.24121750053949 0 0,0 -0.023490565749261283,-0.6061871240058757 l 14.234755985123952 -0.4289498125073758" fill="#ff7a0b" stroke="none" /><line stroke="#e1ed5e" stroke-width="0.3" x1="15.007084014347285" x2="10.007500721073583" y1="101.09737516637583" y2="101.16192664675087" /><path d="M 14.007167355692545 101.11028546245083 a86.0,86.0 0 0,1 10.666146001902534,-42.60595125391555" fill="none" id="id34" stroke="none" /><text fill="#e1ed5e" style="font-size:6.75px; font-family:Arial;" text-anchor="middle"><textPath startOffset="22.20632615414155" xlink:href="#id34">October</textPath></text><path d="M 79.00019446554 99.90962569577889 l -35.802399692839145 -0.15407842498242402 a56.8027312355755,56.8027312355755 0 0,0 0.012623711541464161,-0.977720370704592 l 35.794442974179965 0.7703350537474879" fill="#6aff28" stroke="none" /><path d="M 79.01574976396665 99.18683210126434 l -17.644336014654172 -0.683741733930748 a38.6575790004389,38.6575790004389 0 0,0 0.03149008052980845,-0.664705829614385 l 17.629952325890862 0.987358670168142" fill="#ffab0f" stroke="none" /><path d="M 79.3925641242962 95.95851677861259 l -7.849263285529212 -1.5393795744437861 a28.998788883310496,28.998788883310496 0 0,0 0.10028154601516365,-0.4890084326361118 l 7.821602443599054 1.6742636632433006" fill="#ff1a02" stroke="none" /><path d="M 79.54389044137918 95.25157060432595 l -13.874525530799467 -3.220661518881702 a35.24342372198523,35.24342372198523 0 0,0 0.14226125419686958,-0.5897647420376743 l 13.817031476341782 3.4590114925787727" fill="#ff7a0b" stroke="none" /><path d="M 81.10775173730289 90.83032412892265 l -12.477738483781202 -6.056283821246333 a34.86984251508014,34.86984251508014 0 0,0 0.26673766904471474,-0.5377268642409504 l 12.371640801783075 6.270170273986245" fill="#ff740a" stroke="none" /><line stroke="#e1ed5e" stroke-width="0.3" x1="26.266209847984243" x2="21.928928074336255" y1="57.711370442889674" y2="55.22380399835377" /><path d="M 25.398753493254645 57.213857153982495 a86.0,86.0 0 0,1 29.58750427330803,-30.492523968695096" fill="none" id="id35" stroke="none" /><text fill="#e1ed5e" style="font-size:6.75px; font-family:Arial;" text-anchor="middle"><textPath startOffset="21.46611528233685" xlink:href="#id35">November</textPath></text><path d="M 83.39014120810768 87.1503855733568 l -20.39496573208533 -15.77782503664745 a46.78554614701798,46.78554614701798 0 0,0 0.498256975379192,-0.6327357599435138 l 20.120354676112164 16.126553190544012" fill="#e4ff1a" stroke="none" /><path d="M 84.07557802195018 86.31012108654704 l -11.74780134987904 -10.09932908088127 a36.492168487340756,36.492168487340756 0 0,0 0.4135920483654913,-0.47280720789650454 l 11.572217437935706 10.300051844980718" fill="#ff8c0c" stroke="none" /><line stroke="#e1ed5e" stroke-width="0.3" x1="56.762969772571076" x2="54.21961505331055" y1="26.818313649435495" y2="22.513508569990535" /><path d="M 56.25429882871897 25.957352633546506 a86.0,86.0 0 0,1 42.265352541879196,-11.944610805530505" fill="none" id="id36" stroke="none" /><text fill="#e1ed5e" style="font-size:6.75px; font-family:Arial;" text-anchor="middle"><textPath startOffset="22.20632615414155" xlink:href="#id36">December</textPath></text></svg>