<?xml version="1.0" encoding="utf-8" ?>
<svg baseProfile="full" height="200mm" version="1.1" viewBox="0,0,200,200" width="200mm" xmlns="http://www.w3.org/2000/svg" xmlns:ev="http://www.w3.org/2001/xml-events" xmlns:xlink="http://www.w3.org/1999/xlink"><defs /><rect fill="#1a1a1a" height="200" width="200" x="0" y="0" /><text alignment-baseline="middle" fill="#e1ed5e" style="dominant-baseline: central; font-size:9.0px; font-family:Arial;" text-anchor="middle" x="100.0" y="100.0">2022</text><line stroke="#e1ed5e" stroke-width="0.3" x1="100.0" x2="100.0" y1="15.0" y2="10.0" /><path d="M 100.0 14.0 a86.0,86.0 0 0,1 42.46469731375804,11.215312516191453" fill="none" id="id13" stroke="none" /><text fill="#e1ed5e" style="font-size:6.75px; font-family:Arial;" text-anchor="middle"><textPath startOffset="22.20632615414155" xlink:href="#id13">January</textPath></text><line stroke="#e1ed5e" stroke-width="0.3" x1="143.23703022742887" x2="145.7803849466894" y1="26.81831364943548" y2="22.513508569990506" /><path d="M 143.74570117128098 25.957352633546492 a86.0,86.0 0 0,1 28.547481713284135,27.462654790039103" fill="none" id="id14" stroke="none" /><text fill="#e1ed5e" style="font-size:6.75px; font-family:Arial;" text-anchor="middle"><textPath startOffset="19.985693538727396" xlink:href="#id14">February</textPath></text><path d="M 111.90073688211348 82.69761687909136 l 7.644363067920958 -11.114076365748847 a34.48921718180455,34.48921718180455 0 0,0 0.4862468203651828,0.3406469716529888 l -7.834541027869792 10.980844551331923" fill="#ff9d0e" stroke="none" /><path d="M 112.19680574252982 82.90503203632743 l 6.635798700870366 -9.300694673622793 a32.42526786602521,32.42526786602521 0 0,0 0.45156768837628875,0.32808312987844385 l -6.794911705600443 9.185092308927674" fill="#ff810b" stroke="none" /><path d="M 112.77801427241765 83.33499621200491 l 6.1235071908120595 -7.986238577849879 a31.063664687292828,31.063664687292828 0 0,0 0.4215301501581939,0.3290109683989202 l -6.260069896129683 7.879649220227734" fill="#ff6f0a" stroke="none" /><path d="M 113.06298171725822 83.55741782278167 l 12.701547097496887 -15.987638691439278 a41.418959072341025,41.418959072341025 0 0,0 0.5544156490586428,0.4482988978480798 l -12.97486614512002 15.76663369632707" fill="#fff717" stroke="none" /><path d="M 113.89432698308785 84.25364557470407 l 8.249265086355042 -9.348840858292384 a33.46800705239748,33.46800705239748 0 0,0 0.4286917221026114,0.38488366084143505 l -8.408967796053643 9.205458188681652" fill="#ff900d" stroke="none" /><path d="M 114.68862486808459 84.99185889309783 l 9.36273395057798 -9.5663980487359 a34.38569231142579,34.38569231142579 0 0,0 0.419446826507097,0.41764558853431305 l -9.526016577252399 9.403816609551468" fill="#ff9c0e" stroke="none" /><path d="M 114.94478906791727 85.2469230424477 l 39.646432452803545 -39.137847072345686 a76.71005905303845,76.71005905303845 0 0,0 0.919555390337839,0.947682660943965 l -40.31425210684449 38.4496002158516" fill="#44ffe5" stroke="none" /><path d="M 115.19652480421416 85.50635884689758 l 6.608451309966647 -6.302791138000524 a30.132185107927775,30.132185107927775 0 0,0 0.35474575329117713,0.3784180356786755 l -6.715964385228287 6.188103685443793" fill="#ff6209" stroke="none" /><path d="M 115.68641384162765 86.03803664274999 l 6.0272350315556835 -5.36464455838826 a29.068889227363133,29.068889227363133 0 0,0 0.32945867394603157,0.3766282170107248 l -6.118685569079564 5.260100785174587" fill="#ff5307" stroke="none" /><path d="M 115.9244219780498 86.31012108654704 l 12.303575536457014 -10.577116050352616 a37.225084126867586,37.225084126867586 0 0,0 0.41353414470701855,0.4894939919494327 l -12.483820294651151 10.363763108774078" fill="#ffc212" stroke="none" /><path d="M 116.15771136456269 86.58626213691792 l 7.957302510844623 -6.605958453485679 a31.342018678105017,31.342018678105017 0 0,0 0.3410332633007788,0.41806645657979996 l -8.069834266221811 6.468007827297778" fill="#ff720a" stroke="none" /><path d="M 116.38621287248628 86.86637796730983 l 4.899774983932303 -3.927191303138082 a27.279381054261016,27.279381054261016 0 0,0 0.29052010746227636,0.36893103369826247 l -4.966649171988543 3.842267875486781" fill="#ff3905" stroke="none" /><path d="M 116.60985879189232 87.15038557335679 l 5.350624892450289 -4.139316755850191 a27.76484515306676,27.76484515306676 0 0,0 0.2891828405203622,0.38053072049325276 l -5.421083673194764 4.046601259475905" fill="#ff4006" stroke="none" /><path d="M 117.04232023915458 87.72973835380427 l 6.687715183481657 -4.8150729457614405 a29.240780415007723,29.240780415007723 0 0,0 0.2905800885570424,0.41100492800606625 l -6.769607891842583 4.699241517423581" fill="#ff5507" stroke="none" /><line stroke="#e1ed5e" stroke-width="0.3" x1="172.23445277983987" x2="176.4835382374775" y1="55.19839476539836" y2="52.563006222186495" /><path d="M 173.08426987136738 54.67131705675599 a86.0,86.0 0 0,1 12.851231095245387,41.99856678651699" fill="none" id="id15" stroke="none" /><text fill="#e1ed5e" style="font-size:6.75px; font-family:Arial;" text-anchor="middle"><textPath startOffset="22.20632615414155" xlink:href="#id15">March</textPath></text><path d="M 117.84615892207809 88.93136811851018 l 7.55966800009088 -4.6886942229213755 a29.89564128029308,29.89564128029308 0 0,0 0.2674723188890131,0.43965416514262906 l -7.639256117266116 4.5578722845716655" fill="#ff5e08" stroke="none" /><path d="M 118.03404312379186 89.2402003453031 l 6.580095713240918 -3.9259366908021214 a28.662286766729487,28.662286766729487 0 0,0 0.24914395984874432,0.42586778858267166 l -6.64669934755999 3.8120894898655546" fill="#ff4d07" stroke="none" /><path d="M 118.3937258080291 89.86733742301442 l 43.40258909250115 -23.909445798626507 a70.55246046696328,70.55246046696328 0 0,0 0.5768231448755735,1.068765683201235 l -43.80772033659519 23.158799132092813" fill="#3cffa3" stroke="none" /><path d="M 120.08093135843002 93.85539295169968 l 9.974420372564625 -3.0520941797971757 a31.430931916707348,31.430931916707348 0 0,0 0.15385306901529025,0.5187160642619681 l -10.025479338691616 2.8799487287886776" fill="#ff740a" stroke="none" /><path d="M 120.18372546131832 94.20196356495316 l 8.707449997510077 -2.501327737471834 a30.05959855122644,30.05959855122644 0 0,0 0.13857937196299547,0.49854373329315327 l -8.749216140039435 2.3510727007597287" fill="#ff6108" stroke="none" /><path d="M 120.28053869075195 94.5502522615342 l 8.954371056846814 -2.4062015393450658 a30.272031431765235,30.272031431765235 0 0,0 0.13089578551151315,0.504394857327248 l -8.99446317422863 2.2517102564689675" fill="#ff6409" stroke="none" /><line stroke="#e1ed5e" stroke-width="0.3" x1="184.98032266829074" x2="189.97916517819016" y1="98.17113171792111" y2="98.06355123074" /><path d="M 185.9800911702706 98.14961562048488 a86.0,86.0 0 0,1 -9.607161424134198,41.387399972396054" fill="none" id="id16" stroke="none" /><text fill="#e1ed5e" style="font-size:6.75px; font-family:Arial;" text-anchor="middle"><textPath startOffset="21.466115282336823" xlink:href="#id16">April</textPath></text><path d="M 120.99513854157772 99.54816195383933 l 14.23161737538414 -0.30627976928398754 a35.234912729497445,35.234912729497445 0 0,0 0.007830527948403727,0.6064830191484372 l -14.23478091045026 0.06126049207508757" fill="#ffa70f" stroke="none" /><path d="M 120.92983693683757 101.71520430193887 l 6.039083321401844 0.4949040799455375 a27.059328131994558,27.059328131994558 0 0,0 -0.042039119275115014,0.46389817813758494 l -6.029669605849653 -0.5987836466316929" fill="#ff3605" stroke="none" /><path d="M 120.89721153311464 102.0752229133903 l 5.194392219313782 0.5158354136184411 a26.219942212516386,26.219942212516386 0 0,0 -0.048466562450728744,0.4487401748165052 l -5.184743355362001 -0.6051719103197377" fill="#ff2a04" stroke="none" /><line stroke="#e1ed5e" stroke-width="0.3" x1="174.80103733775053" x2="179.2010983576182" y1="140.37084112569926" y2="142.7455964860345" /><path d="M 175.68104954172406 140.8457921977663 a86.0,86.0 0 0,1 -30.038265399797805,32.042727171017184" fill="none" id="id17" stroke="none" /><text fill="#e1ed5e" style="font-size:6.75px; font-family:Arial;" text-anchor="middle"><textPath startOffset="22.206326154141568" xlink:href="#id17">May</textPath></text><path d="M 116.93607887273984 112.41649034213515 l 1.9393728796853955 1.4218287958715052 a23.4047378841006,23.4047378841006 0 0,0 -0.24100051778053835,0.3228595773087786 l -1.914611095209765 -1.455001252689599" fill="#ff0000" stroke="none" /><path d="M 116.71984013943494 112.70617746262583 l 8.46972594210289 6.436535276814083 a31.637915392782688,31.637915392782688 0 0,0 -0.3332424382054794,0.4307607729133155 l -8.357676686679342 -6.581374043840651" fill="#ff770a" stroke="none" /><path d="M 116.27256486870786 113.27417163493432 l 5.437696233971753 4.435742840219426 a28.017432213958926,28.017432213958926 0 0,0 -0.30806367480545777,0.37108254166146126 l -5.360536559272751 -4.528686638994658" fill="#ff4406" stroke="none" /><path d="M 116.0416608686014 113.55231037782055 l 12.525979212402259 10.582193418941408 a37.39765144114914,37.39765144114914 0 0,0 -0.4196684136460931,0.4881691760758983 l -12.341968289185386 -10.796239694178835" fill="#ffc412" stroke="none" /><path d="M 115.80600337817218 113.82643327865902 l 3.458735376385426 3.025557616682028 a25.595307312435445,25.595307312435445 0 0,0 -0.29293360014643016,0.3291140051322882 l -3.4061429265906575 -3.084645791555183" fill="#ff2003" stroke="none" /><path d="M 115.32070863581623 114.36230785411682 l 5.354817202662108 5.019841770723453 a28.33981462143466,28.33981462143466 0 0,0 -0.33669514681821805,0.35302351534944365 l -5.267615504464925 -5.111272402655403" fill="#ff4806" stroke="none" /><path d="M 115.07121518719521 114.62390073753431 l 6.541175969346518 6.347033526781621 a30.114374232608967,30.114374232608967 0 0,0 -0.3641822693789075,0.3689147161505897 l -6.4309530749120745 -6.458688736912875" fill="#ff6109" stroke="none" /><path d="M 114.81725581225074 114.88116024355365 l 3.896196357672486 3.913000023319919 a26.521948500306937,26.521948500306937 0 0,0 -0.3262831741971919,0.3193367594569264 l -3.8282632310995 -3.9794868856994174" fill="#ff2e04" stroke="none" /><path d="M 114.55890576462653 115.13401014063108 l 4.723084910489999 4.909655717676862 a27.812653692784878,27.812653692784878 0 0,0 -0.34787559407584584,0.32893808749849546 l -4.637873482023346 -4.990228441921279" fill="#ff4106" stroke="none" /><path d="M 114.29624159901734 115.38237550388516 l 6.339742431654303 6.821394140983431 a30.312558838813374,30.312558838813374 0 0,0 -0.3852588386138802,0.3519248146748814 l -6.221384043573559 -6.929511722244895" fill="#ff6409" stroke="none" /><path d="M 113.75828350139079 115.86535959552629 l 5.3254530194313 6.1410442046653495 a29.128522238748186,29.128522238748186 0 0,0 -0.3816315278177554,0.32523466732547307 l -5.218956015036498 -6.231803262213769" fill="#ff5307" stroke="none" /><path d="M 113.48314897796784 116.09983520530334 l 5.885561036538893 7.0277768890537065 a30.16675933561813,30.16675933561813 0 0,0 -0.40097350740830134,0.32997389845963176 l -5.7637174005859 -7.128045906370517" fill="#ff6209" stroke="none" /><path d="M 113.20401910651253 116.32954008644616 l 2.918746088014468 3.6096419477977184 a25.64204628559439,25.64204628559439 0 0,0 -0.34560900345392237,0.2745726945305242 l -2.856179591843195 -3.6593485563333688" fill="#ff2103" stroke="none" /><path d="M 112.92097659922987 116.55440617244103 l 2.8409644247232286 3.639854824218684 a25.617317619996594,25.617317619996594 0 0,0 -0.34994630848735475,0.26832390687198693 l -2.77788938774238 -3.6882180729180427" fill="#ff2103" stroke="none" /><path d="M 112.34349029814194 116.9893568818739 l 3.977246717859803 5.474210475715546 a27.766496271125877,27.766496271125877 0 0,0 -0.38909147876086636,0.2776064390763794 l -3.882427911250052 -5.541861176636145" fill="#ff4006" stroke="none" /><path d="M 111.7513745106137 117.40417183066458 l 1.886870334625236 2.794516973000988 a24.371884454141238,24.371884454141238 0 0,0 -0.3497078774008997,0.23176731215360658 l -1.8384877584843722 -2.8265823062459132" fill="#ff0e01" stroke="none" /><path d="M 111.45004920935366 117.60387380957326 l 3.6991958558613307 5.687327264085629 a27.784522193112302,27.784522193112302 0 0,0 -0.4031642635082023,0.2573185080278574 l -3.600749790306198 -5.750160200937295" fill="#ff4006" stroke="none" /><path d="M 111.1453310114006 117.79835938074945 l 6.036849745354144 9.640451341058597 a32.374614582802394,32.374614582802394 0 0,0 -0.4748597469370447,0.2916976410024947 l -5.870010798484791 -9.742937448889469" fill="#ff810b" stroke="none" /><line stroke="#e1ed5e" stroke-width="0.3" x1="143.8653032363475" x2="146.44561519142675" y1="172.8068346515853" y2="177.08958963109032" /><path d="M 144.38136562736335 173.6633856474863 a86.0,86.0 0 0,1 -40.68145358897372,12.25698825130547" fill="none" id="id18" stroke="none" /><text fill="#e1ed5e" style="font-size:6.75px; font-family:Arial;" text-anchor="middle"><textPath startOffset="21.466115282336833" xlink:href="#id18">June</textPath></text><path d="M 109.2508944713604 118.85261126421891 l 1.4812441362214643 3.018661597971986 a24.362499373109422,24.362499373109422 0 0,0 -0.3780680915023158,0.1814956590811961 l -1.4290633767189156 -3.0437115335527425" fill="#ff0e01" stroke="none" /><path d="M 108.92500713936063 119.00905698771935 l 1.729403362739194 3.683395045375602 a25.069181127862358,25.069181127862358 0 0,0 -0.3921918247812478,0.18003603096279314 l -1.6657435421905267 -3.7126181466724697" fill="#ff1902" stroke="none" /><path d="M 108.2653958097858 119.30500536409082 l 1.7955506930606289 4.193763560602034 a25.561979295611057,25.561979295611057 0 0,0 -0.4059833165152987,0.16970105922961676 l -1.7230959170478692 -4.224049662851623" fill="#ff2003" stroke="none" /><path d="M 106.2309692047433 120.05430185196036 l 1.095307608395166 3.5252347873560637 a24.69147383344291,24.69147383344291 0 0,0 -0.4069684291289728,0.12261624928362995 l -1.0344642048259476 -3.5435664057454193" fill="#ff1302" stroke="none" /><path d="M 102.34483914955558 120.86867818915974 l 0.7849401459329115 6.985836664459735 a28.029796934137366,28.029796934137366 0 0,0 -0.4799333952990482,0.049747058752006974 l -0.6645741540282607 -6.998313091667501" fill="#ff4406" stroke="none" /><path d="M 101.98527174616119 120.90594882070398 l 0.3806760226035525 4.008717426824676 a25.026751748284603,25.026751748284603 0 0,0 -0.4292155643150717,0.037034524934010084 l -0.3116161405469391 -4.014676204037349" fill="#ff1802" stroke="none" /><path d="M 101.62511606390274 120.93702456842531 l 0.626946576897785 8.077205176395774 a29.101500198844565,29.101500198844565 0 0,0 -0.4997659375667959,0.03446678509547242 l -0.48781787855205877 -8.086800306007532" fill="#ff5307" stroke="none" /><line stroke="#e1ed5e" stroke-width="0.3" x1="102.19456741930631" x2="102.32365962044197" y1="184.97166512339345" y2="189.96999836594603" /><path d="M 102.22038585953345 185.97133177190398 a86.0,86.0 0 0,1 -42.740103519485714,-10.115201625700543" fill="none" id="id19" stroke="none" /><text fill="#e1ed5e" style="font-size:6.75px; font-family:Arial;" text-anchor="middle"><textPath startOffset="22.20632615414155" xlink:href="#id19">July</textPath></text><path d="M 98.73552117531835 120.96189622390904 l -0.5328367526541016 8.83310063830606 a29.8491571288695,29.8491571288695 0 0,0 -0.5126056009538769,-0.03535228345659586 l 0.6848051143869086 -8.822620010333178" fill="#ff5e08" stroke="none" /><path d="M 98.37488393609728 120.93702456842531 l -1.3121068562155547 16.90440091953264 a37.95524682363615,37.95524682363615 0 0,0 -0.6509427530978505,-0.05616607976154185 l 1.602893927054947 -16.879310587492434" fill="#ffcb12" stroke="none" /><path d="M 91.07499286063937 119.00905698771935 l -1.2861183614627358 2.7392580021788944 a24.0261584297906,24.0261584297906 0 0,0 -0.37284860328037867,-0.17898998754689183 l 1.3330796327433565 -2.7167137381324404" fill="#ff0901" stroke="none" /><line stroke="#e1ed5e" stroke-width="0.3" x1="58.666819895761336" x2="56.23545636021788" y1="174.27360380694188" y2="178.64263932499728" /><path d="M 58.180547188652646 175.14741091055294 a86.0,86.0 0 0,1 -31.652253787137756,-30.449443065178592" fill="none" id="id20" stroke="none" /><text fill="#e1ed5e" style="font-size:6.75px; font-family:Arial;" text-anchor="middle"><textPath startOffset="22.20632615414155" xlink:href="#id20">August</textPath></text><path d="M 87.36589467227662 116.77436683061367 l -3.8309369722031907 5.0863547841164385 a27.367659151909557,27.367659151909557 0 0,0 -0.3738569132888171,-0.2866575390332531 l 3.9179226139854944 -5.019657903255819" fill="#ff3a05" stroke="none" /><path d="M 83.72743513129214 113.27417163493432 l -3.3980668872074222 2.771936904336341 a25.385258575221908,25.385258575221908 0 0,0 -0.27329296484349597,-0.34097499435661455 l 3.445277764105779 -2.713034076401467" fill="#ff1d03" stroke="none" /><path d="M 83.06392112726016 112.41649034213515 l -2.9336047844590523 2.150738417527492 a24.637542133368314,24.637542133368314 0 0,0 -0.24780698879832258,-0.3441822336291398 l 2.970191565632982 -2.0999225784472144" fill="#ff1202" stroke="none" /><line stroke="#e1ed5e" stroke-width="0.3" x1="26.63291911575756" x2="22.317208475507996" y1="142.92168965132927" y2="145.44649492493687" /><path d="M 25.769776987707644 143.4266507060508 a86.0,86.0 0 0,1 -11.730757126820373,-40.83630448921669" fill="none" id="id21" stroke="none" /><text fill="#e1ed5e" style="font-size:6.75px; font-family:Arial;" text-anchor="middle"><textPath startOffset="21.46611528233685" xlink:href="#id21">September</textPath></text><line stroke="#e1ed5e" stroke-width="0.3" x1="15.007084014347285" x2="10.007500721073583" y1="101.09737516637583" y2="101.16192664675087" /><path d="M 14.007167355692545 101.11028546245083 a86.0,86.0 0 0,1 10.666146001902534,-42.60595125391555" fill="none" id="id22" stroke="none" /><text fill="#e1ed5e" style="font-size:6.75px; font-family:Arial;" text-anchor="middle"><textPath startOffset="22.20632615414155" xlink:href="#id22">October</textPath></text><path d="M 79.54389044137918 95.25157060432595 l -13.929691782682882 -3.233467133328657 a35.30005674334405,35.30005674334405 0 0,0 0.14248985527464847,-0.5907124410891618 l 13.87196912714742 3.4727648060772154" fill="#ffa80f" stroke="none" /><path d="M 79.81627453868168 94.20196356495316 l -4.580313489180919 -1.3157543460003511 a25.765551506194377,25.765551506194377 0 0,0 0.12612127392863612,-0.4252182374435912 l 4.556986318140576 1.3944019701904815" fill="#ff2303" stroke="none" /><path d="M 80.02781315780177 93.51064311812611 l -5.528510343643081 -1.7963219014769893 a26.81301978265122,26.81301978265122 0 0,0 0.14640254335379962,-0.43772497016041473 l 5.496770506517509 1.8912199745597262" fill="#ff3204" stroke="none" /><path d="M 80.14247586403 93.16781622104843 l -11.232514747815266 -3.864661300743222 a32.87876233154573,32.87876233154573 0 0,0 0.18873492885020576,-0.5335790591783864 l 11.16432673815525 4.057437986348219" fill="#ff880c" stroke="none" /><path d="M 80.2630227832202 92.82701384747504 l -30.917645003222212 -11.236362946614307 a53.89614908789961,53.89614908789961 0 0,0 0.32439171153060475,-0.869208509489941 l 30.71964870318998 11.766894593133589" fill="#75ff27" stroke="none" /><line stroke="#e1ed5e" stroke-width="0.3" x1="26.266209847984243" x2="21.928928074336255" y1="57.711370442889674" y2="55.22380399835377" /><path d="M 25.398753493254645 57.213857153982495 a86.0,86.0 0 0,1 29.58750427330803,-30.492523968695096" fill="none" id="id23" stroke="none" /><text fill="#e1ed5e" style="font-size:6.75px; font-family:Arial;" text-anchor="middle"><textPath startOffset="21.46611528233685" xlink:href="#id23">November</textPath></text><path d="M 81.78341655067845 89.55222093294921 l -4.367054260995359 -2.5046418950970497 a26.034321596913834,26.034321596913834 0 0,0 0.22630064472594763,-0.38682115826842 l 4.323293941799086 2.5794424657193615" fill="#ff2703" stroke="none" /><path d="M 84.07557802195018 86.31012108654704 l -47.77326593414944 -41.06963674035889 a84.0,84.0 0 0,0 0.9520325456886258,-1.0883377751882275 l 47.05924152488297 41.885890071750055" fill="#4dd2ff" stroke="none" /><line stroke="#e1ed5e" stroke-width="0.3" x1="56.762969772571076" x2="54.21961505331055" y1="26.818313649435495" y2="22.513508569990535" /><path d="M 56.25429882871897 25.957352633546506 a86.0,86.0 0 0,1 42.265352541879196,-11.944610805530505" fill="none" id="id24" stroke="none" /><text fill="#e1ed5e" style="font-size:6.75px; font-family:Arial;" text-anchor="middle"><textPath startOffset="22.20632615414155" xlink:href="#id24">December</textPath></text></svg>