<?xml version="1.0" encoding="utf-8" ?>
<svg baseProfile="full" height="200mm" version="1.1" viewBox="0,0,200,200" width="200mm" xmlns="http://www.w3.org/2000/svg" xmlns:ev="http://www.w3.org/2001/xml-events" xmlns:xlink="http://www.w3.org/1999/xlink"><defs /><rect fill="#1a1a1a" height="200" width="200" x="0" y="0" /><text alignment-baseline="middle" fill="#e1ed5e" style="dominant-baseline: central; font-size:9.0px; font-family:Arial;" text-anchor="middle" x="100.0" y="100.0">2022</text><line stroke="#e1ed5e" stroke-width="0.3" x1="100.0" x2="100.0" y1="15.0" y2="10.0" /><path d="M 100.0 14.0 a86.0,86.0 0 0,1 42.46469731375804,11.215312516191453" fill="none" id="id13" stroke="none" /><text fill="#e1ed5e" style="font-size:6.75px; font-family:Arial;" text-anchor="middle"><textPath startOffset="22.20632615414155" xlink:href="#id13">January</textPath></text><line stroke="#e1ed5e" stroke-width="0.3" x1="143.23703022742887" x2="145.7803849466894" y1="26.81831364943548" y2="22.513508569990506" /><path d="M 143.74570117128098 25.957352633546492 a86.0,86.0 0 0,1 28.547481713284135,27.462654790039103" fill="none" id="id14" stroke="none" /><text fill="#e1ed5e" style="font-size:6.75px; font-family:Arial;" text-anchor="middle"><textPath startOffset="19.985693538727396" xlink:href="#id14">February</textPath></text><path d="M 111.90073688211348 82.69761687909136 l 17.469224153441466 -25.398360800847858 a51.8261337811479,51.8261337811479 0 0,0 0.7306716365890339,0.5118821755787667 l -17.90382692961415 25.093893782505155" fill="#eaff1a" stroke="none" /><path d="M 112.19680574252982 82.90503203632743 l 14.920728193427164 -20.91280092884368 a46.68994691531256,46.68994691531256 0 0,0 0.6502235073607683,0.4724150308064021 l -15.278497017141722 20.652866663220603" fill="#ffc312" stroke="none" /><path d="M 112.77801427241765 83.33499621200491 l 14.167481574267603 -18.47713808014468 a44.283517040815475,44.283517040815475 0 0,0 0.6009219380797625,0.46902910433709444 l -14.483436067506796 18.23053058658436" fill="#ff9c0e" stroke="none" /><path d="M 113.06298171725822 83.55741782278167 l 29.194153637206924 -36.74714400311238 a67.93241096490058,67.93241096490058 0 0,0 0.9093128499787548,0.7352677528794899 l -29.82236988575017 36.23917015296876" fill="#33ff57" stroke="none" /><path d="M 113.89432698308785 84.25364557470407 l 18.669960258085702 -21.15854993824773 a49.217931382860485,49.217931382860485 0 0,0 0.6304325121544748,0.5660085340612148 l -19.031403757836166 20.83404239541722" fill="#ffec16" stroke="none" /><path d="M 114.68862486808459 84.99185889309783 l 26.976607364639012 -27.56341955424954 a59.56785504055782,59.56785504055782 0 0,0 0.7266262820101628,0.7235059178341391 l -27.447069446816496 27.09497778576528" fill="#7aff26" stroke="none" /><path d="M 114.94478906791727 85.2469230424477 l 44.8343672037518 -44.25923087265689 a84.0,84.0 0 0,0 1.0069429451875638,1.0377432177995427 l -45.58957441264248 43.480923459307235" fill="#4dd2ff" stroke="none" /><path d="M 115.19652480421416 85.50635884689758 l 14.881386271357846 -14.193078697700244 a41.56451167123767,41.56451167123767 0 0,0 0.4893383586414304,0.5219920428683051 l -15.12349195196974 13.934817237953885" fill="#ff6d0a" stroke="none" /><path d="M 115.68641384162765 86.03803664274999 l 13.411342712624942 -11.936997035503566 a38.95427557940167,38.95427557940167 0 0,0 0.44149688268230136,0.5047072573589808 l -13.61483145888509 11.704374221941638" fill="#ff3f05" stroke="none" /><path d="M 115.9244219780498 86.31012108654704 l 31.140561799203887 -26.77086307532077 a62.06596764923005,62.06596764923005 0 0,0 0.689491976962729,0.8161410237592513 l -31.596764389653732 26.23086310193241" fill="#59ff2a" stroke="none" /><path d="M 116.15771136456269 86.58626213691792 l 17.893204656665986 -14.854502062798357 a44.2556015707832,44.2556015707832 0 0,0 0.4815462710947433,0.5903187896901415 l -18.14624941983714 14.544299103500114" fill="#ff9b0e" stroke="none" /><path d="M 116.38621287248628 86.86637796730983 l 11.33587389413254 -9.085753022637663 a35.52766137174339,35.52766137174339 0 0,0 0.37836269008713613,0.4804821930779025 l -11.49059066481364 8.889278435606723" fill="#ff0000" stroke="none" /><line stroke="#e1ed5e" stroke-width="0.3" x1="172.23445277983987" x2="176.4835382374775" y1="55.19839476539836" y2="52.563006222186495" /><path d="M 173.08426987136738 54.67131705675599 a86.0,86.0 0 0,1 12.851231095245387,41.99856678651699" fill="none" id="id15" stroke="none" /><text fill="#e1ed5e" style="font-size:6.75px; font-family:Arial;" text-anchor="middle"><textPath startOffset="22.20632615414155" xlink:href="#id15">March</textPath></text><line stroke="#e1ed5e" stroke-width="0.3" x1="184.98032266829074" x2="189.97916517819016" y1="98.17113171792111" y2="98.06355123074" /><path d="M 185.9800911702706 98.14961562048488 a86.0,86.0 0 0,1 -9.607161424134198,41.387399972396054" fill="none" id="id16" stroke="none" /><text fill="#e1ed5e" style="font-size:6.75px; font-family:Arial;" text-anchor="middle"><textPath startOffset="21.466115282336823" xlink:href="#id16">April</textPath></text><line stroke="#e1ed5e" stroke-width="0.3" x1="174.80103733775053" x2="179.2010983576182" y1="140.37084112569926" y2="142.7455964860345" /><path d="M 175.68104954172406 140.8457921977663 a86.0,86.0 0 0,1 -30.038265399797805,32.042727171017184" fill="none" id="id17" stroke="none" /><text fill="#e1ed5e" style="font-size:6.75px; font-family:Arial;" text-anchor="middle"><textPath startOffset="22.206326154141568" xlink:href="#id17">May</textPath></text><line stroke="#e1ed5e" stroke-width="0.3" x1="143.8653032363475" x2="146.44561519142675" y1="172.8068346515853" y2="177.08958963109032" /><path d="M 144.38136562736335 173.6633856474863 a86.0,86.0 0 0,1 -40.68145358897372,12.25698825130547" fill="none" id="id18" stroke="none" /><text fill="#e1ed5e" style="font-size:6.75px; font-family:Arial;" text-anchor="middle"><textPath startOffset="21.466115282336833" xlink:href="#id18">June</textPath></text><line stroke="#e1ed5e" stroke-width="0.3" x1="102.19456741930631" x2="102.32365962044197" y1="184.97166512339345" y2="189.96999836594603" /><path d="M 102.22038585953345 185.97133177190398 a86.0,86.0 0 0,1 -42.740103519485714,-10.115201625700543" fill="none" id="id19" stroke="none" /><text fill="#e1ed5e" style="font-size:6.75px; font-family:Arial;" text-anchor="middle"><textPath startOffset="22.20632615414155" xlink:href="#id19">July</textPath></text><line stroke="#e1ed5e" stroke-width="0.3" x1="58.666819895761336" x2="56.23545636021788" y1="174.27360380694188" y2="178.64263932499728" /><path d="M 58.180547188652646 175.14741091055294 a86.0,86.0 0 0,1 -31.652253787137756,-30.449443065178592" fill="none" id="id20" stroke="none" /><text fill="#e1ed5e" style="font-size:6.75px; font-family:Arial;" text-anchor="middle"><textPath startOffset="22.20632615414155" xlink:href="#id20">August</textPath></text><line stroke="#e1ed5e" stroke-width="0.3" x1="26.63291911575756" x2="22.317208475507996" y1="142.92168965132927" y2="145.44649492493687" /><path d="M 25.769776987707644 143.4266507060508 a86.0,86.0 0 0,1 -11.730757126820373,-40.83630448921669" fill="none" id="id21" stroke="none" /><text fill="#e1ed5e" style="font-size:6.75px; font-family:Arial;" text-anchor="middle"><textPath startOffset="21.46611528233685" xlink:href="#id21">September</textPath></text><line stroke="#e1ed5e" stroke-width="0.3" x1="15.007084014347285" x2="10.007500721073583" y1="101.09737516637583" y2="101.16192664675087" /><path d="M 14.007167355692545 101.11028546245083 a86.0,86.0 0 0,1 10.666146001902534,-42.60595125391555" fill="none" id="id22" stroke="none" /><text fill="#e1ed5e" style="font-size:6.75px; font-family:Arial;" text-anchor="middle"><textPath startOffset="22.20632615414155" xlink:href="#id22">October</textPath></text><line stroke="#e1ed5e" stroke-width="0.3" x1="26.266209847984243" x2="21.928928074336255" y1="57.711370442889674" y2="55.22380399835377" /><path d="M 25.398753493254645 57.213857153982495 a86.0,86.0 0 0,1 29.58750427330803,-30.492523968695096" fill="none" id="id23" stroke="none" /><text fill="#e1ed5e" style="font-size:6.75px; font-family:Arial;" text-anchor="middle"><textPath startOffset="21.46611528233685" xlink:href="#id23">November</textPath></text><line stroke="#e1ed5e" stroke-width="0.3" x1="56.762969772571076" x2="54.21961505331055" y1="26.818313649435495" y2="22.513508569990535" /><path d="M 56.25429882871897 25.957352633546506 a86.0,86.0 0 0,1 42.265352541879196,-11.944610805530505" fill="none" id="id24" stroke="none" /><text fill="#e1ed5e" style="font-size:6.75px; font-family:Arial;" text-anchor="middle"><textPath startOffset="22.20632615414155" xlink:href="#id24">December</textPath></text></svg>